<svg width="275" height="196" viewBox="0 0 275 196" fill="none" xmlns="http://www.w3.org/2000/svg">
<rect width="275" height="196" rx="16" fill="white"/>
<path d="M11.4844 28V13.7812H14.1113V25.9492H20.3809V28H11.4844ZM21.2656 28V13.7812H23.9023V28H21.2656ZM24.2207 13.7812H27.0332L30.5195 23.752C30.5846 23.9342 30.6367 24.1068 30.6758 24.2695C30.7214 24.4258 30.7669 24.5983 30.8125 24.7871H30.8906C30.9362 24.5983 30.9818 24.4225 31.0273 24.2598C31.0794 24.097 31.1348 23.9277 31.1934 23.752L34.7285 13.7812H37.2773L32.1113 28.0684H29.3867L24.2207 13.7812ZM37.5859 28V13.7812H46.8242V15.832H40.1836V19.6895H45.9355V21.6816H40.1836V25.9688H46.9316V28H37.5859ZM51.7773 28V13.7812H54.4141V28H51.7773ZM56.4023 28V13.7812H59.1758L64.5664 22.9512C64.6771 23.153 64.778 23.3483 64.8691 23.5371C64.9603 23.7194 65.0417 23.9082 65.1133 24.1035H65.1914C65.1849 23.8887 65.1784 23.6738 65.1719 23.459C65.1719 23.2441 65.1719 23.0293 65.1719 22.8145V13.7812H67.5059V28H64.7031L59.332 18.8594C59.2148 18.6641 59.1107 18.472 59.0195 18.2832C58.9349 18.0879 58.8535 17.8958 58.7754 17.707H58.707C58.7201 17.9154 58.7266 18.1335 58.7266 18.3613C58.7331 18.5892 58.7363 18.8105 58.7363 19.0254V28H56.4023ZM68.0293 15.832V13.7812H79.2109V15.832H74.9434V28H72.3066V15.832H68.0293ZM79.9102 28V13.7812H89.1484V15.832H82.5078V19.6895H88.2598V21.6816H82.5078V25.9688H89.2559V28H79.9102ZM90.3164 28V13.7812H95.3164C96.8984 13.7812 98.1257 14.1719 98.998 14.9531C99.8704 15.7344 100.307 16.8021 100.307 18.1562C100.307 19.5234 99.8639 20.6107 98.9785 21.418C98.0996 22.2188 96.8789 22.6191 95.3164 22.6191H92.9434V28H90.3164ZM92.9434 20.666H95.1895C96.1074 20.666 96.752 20.4382 97.123 19.9824C97.4941 19.5202 97.6797 18.9245 97.6797 18.1953C97.6797 17.4661 97.4941 16.8802 97.123 16.4375C96.752 15.9948 96.1074 15.7734 95.1895 15.7734H92.9434V20.666ZM98.0605 28L94.75 21.4766L97.4258 21.2227L100.99 28H98.0605ZM99.834 13.7812H102.646L106.133 23.752C106.198 23.9342 106.25 24.1068 106.289 24.2695C106.335 24.4258 106.38 24.5983 106.426 24.7871H106.504C106.549 24.5983 106.595 24.4225 106.641 24.2598C106.693 24.097 106.748 23.9277 106.807 23.752L110.342 13.7812H112.891L107.725 28.0684H105L99.834 13.7812ZM113.199 28V13.7812H115.836V28H113.199ZM117.824 28V13.7812H127.062V15.832H120.422V19.6895H126.174V21.6816H120.422V25.9688H127.17V28H117.824ZM130.457 28.0586L127.068 13.7812H129.676L131.883 23.6738C131.928 23.8822 131.961 24.0547 131.98 24.1914C132 24.3216 132.023 24.4941 132.049 24.709H132.137C132.156 24.4941 132.176 24.3216 132.195 24.1914C132.221 24.0547 132.257 23.8822 132.303 23.6738L134.725 13.7812H137.518L139.998 23.6641C140.05 23.8724 140.086 24.0449 140.105 24.1816C140.125 24.3184 140.148 24.4941 140.174 24.709H140.252C140.271 24.4941 140.294 24.3184 140.32 24.1816C140.346 24.0449 140.379 23.8724 140.418 23.6641L142.547 13.7812H144.92L141.57 28.0586H138.768L136.248 18.1465C136.196 17.9447 136.154 17.7526 136.121 17.5703C136.089 17.3815 136.059 17.1829 136.033 16.9746H135.955C135.929 17.1829 135.9 17.3815 135.867 17.5703C135.835 17.7526 135.792 17.9447 135.74 18.1465L133.221 28.0586H130.457ZM144.975 24.0449V23.752H147.602V23.9961C147.602 24.7513 147.842 25.3177 148.324 25.6953C148.806 26.0729 149.48 26.2617 150.346 26.2617C151.212 26.2617 151.872 26.0794 152.328 25.7148C152.79 25.3503 153.021 24.8685 153.021 24.2695C153.021 23.6836 152.8 23.2246 152.357 22.8926C151.915 22.554 151.003 22.1927 149.623 21.8086C148.126 21.3919 147.016 20.8613 146.293 20.2168C145.57 19.5723 145.209 18.6771 145.209 17.5312C145.209 16.3268 145.661 15.3568 146.566 14.6211C147.471 13.8789 148.702 13.5078 150.258 13.5078C151.807 13.5078 153.048 13.8887 153.979 14.6504C154.91 15.4056 155.375 16.4115 155.375 17.668V17.9219H152.777V17.707C152.777 17.056 152.566 16.5319 152.143 16.1348C151.719 15.7376 151.094 15.5391 150.268 15.5391C149.434 15.5391 148.822 15.7018 148.432 16.0273C148.041 16.3529 147.846 16.7956 147.846 17.3555C147.846 17.8893 148.057 18.3027 148.48 18.5957C148.904 18.8887 149.809 19.2272 151.195 19.6113C152.667 20.028 153.777 20.5749 154.525 21.252C155.274 21.9225 155.648 22.873 155.648 24.1035C155.648 25.3926 155.167 26.4115 154.203 27.1602C153.246 27.9023 151.964 28.2734 150.355 28.2734C148.76 28.2734 147.465 27.9089 146.469 27.1797C145.473 26.444 144.975 25.3991 144.975 24.0449Z" fill="black"/>
<path d="M36 63.3175V66.576C36.0018 70.0149 34.6327 73.316 32.1894 75.7644C31.009 76.9534 29.6062 77.9046 28.0591 78.5653C26.8928 79.0632 25.6574 79.3852 24.3944 79.5204V84.244H30.2136C30.5834 84.244 30.938 84.3892 31.1995 84.6476C31.461 84.906 31.6079 85.2565 31.6079 85.622C31.6079 85.9875 31.461 86.338 31.1995 86.5964C30.938 86.8548 30.5834 87 30.2136 87H15.7864C15.4166 87 15.062 86.8548 14.8005 86.5964C14.539 86.338 14.3921 85.9875 14.3921 85.622C14.3921 85.2565 14.539 84.906 14.8005 84.6476C15.062 84.3892 15.4166 84.244 15.7864 84.244H21.6056V79.5204C20.3426 79.385 19.1073 79.063 17.9409 78.5653C16.3938 77.9046 14.991 76.9534 13.8107 75.7644C11.3667 73.3154 9.99758 70.0132 10 66.5735V63.315C10 63.1339 10.0361 62.9546 10.1062 62.7872C10.1764 62.6199 10.2792 62.4678 10.4088 62.3398C10.5384 62.2117 10.6922 62.1101 10.8616 62.0408C11.0309 61.9715 11.2124 61.9358 11.3956 61.9358C11.5789 61.9358 11.7604 61.9715 11.9297 62.0408C12.0991 62.1101 12.2529 62.2117 12.3825 62.3398C12.5121 62.4678 12.6149 62.6199 12.6851 62.7872C12.7552 62.9546 12.7913 63.1339 12.7913 63.315V66.5735C12.784 69.2899 13.8654 71.8987 15.799 73.8293C16.7348 74.7811 17.8542 75.5377 19.0911 76.0544C20.328 76.571 21.6572 76.8372 23 76.8372C24.3428 76.8372 25.672 76.571 26.9089 76.0544C28.1458 75.5377 29.2652 74.7811 30.201 73.8293C32.1341 71.8983 33.2154 69.2898 33.2087 66.5735V63.315C33.2087 62.9492 33.3558 62.5984 33.6175 62.3398C33.8792 62.0811 34.2342 61.9358 34.6044 61.9358C34.9745 61.9358 35.3295 62.0811 35.5912 62.3398C35.853 62.5984 36 62.9517 36 63.3175ZM16.1288 69.4241C15.7377 68.5236 15.5381 67.5534 15.5423 66.5735V55.4151C15.5361 54.4254 15.7357 53.445 16.1288 52.5347C16.8934 50.7535 18.3283 49.3355 20.1307 48.5797C21.0518 48.1911 22.0438 47.9939 23.0453 48.0002C24.042 47.9933 25.0292 48.1906 25.9448 48.5797C27.292 49.1568 28.4379 50.1123 29.2402 51.3275C30.0425 52.5427 30.4659 53.9641 30.4577 55.4151L30.4275 66.576C30.4333 68.5223 29.6586 70.3916 28.273 71.7747C27.5942 72.4422 26.7941 72.9773 25.9146 73.3517C24.999 73.7408 24.0118 73.9382 23.0151 73.9312C22.0137 73.9374 21.0216 73.7401 20.1005 73.3517C18.3082 72.6056 16.8826 71.1958 16.1288 69.4241Z" fill="#141531"/>
<path d="M263.253 151.544C248.361 151.544 238.85 141.732 228.788 131.341C217.67 119.867 206.177 108 185.42 108C166.033 108 154.629 120.863 142.55 134.478C141.783 135.343 141.018 136.203 140.248 137.068C128.495 142.669 115.707 147.978 94.7076 147.978C72.1327 147.978 61.5758 140.945 51.3657 134.144C43.7464 129.059 29.441 120.664 11.7467 120.664C10.7777 120.664 10 121.023 10 121.461C10 121.899 10.7777 122.248 11.7493 122.248C30.1269 122.248 39.3171 131.973 49.0452 142.266C59.597 153.443 70.5236 165 94.7102 165C118.767 165 132.213 150.369 145.039 135.922C156.675 130.302 167.718 125.022 185.423 125.022C204.586 125.022 215.717 132.303 226.475 139.342C234.344 144.487 249.06 153.128 263.256 153.128C264.215 153.128 265 152.773 265 152.336C265 151.898 264.212 151.544 263.253 151.544ZM226.398 133.711C227.158 134.421 227.906 135.125 228.665 135.825C228.428 135.626 228.191 135.431 227.957 135.232C216.951 125.929 205.558 116.311 185.423 116.311C171.663 116.311 161.902 121.241 152.939 127.683C162.078 119.546 171.791 113.144 185.423 113.144C204.487 113.144 215.63 123.603 226.398 133.711ZM51.4371 139.885C50.746 139.22 50.055 138.564 49.3691 137.909C49.5374 138.054 49.7057 138.2 49.874 138.341C60.3339 147.362 71.1458 156.688 94.7102 156.688C111.165 156.688 122.65 151.554 132.442 144.942C122.574 153.244 111.145 159.855 94.7102 159.855C72.2296 159.856 61.6523 149.702 51.4371 139.885ZM47.6325 134.737C48.3848 135.31 49.1396 135.883 49.8918 136.466C60.3569 144.462 71.1764 152.73 94.7102 152.73C111.849 152.73 123.604 148.251 133.676 142.626C123.54 149.932 111.849 155.897 94.7102 155.897C72.2041 155.897 61.6344 146.79 51.4243 137.977C50.1544 136.884 48.8973 135.801 47.6325 134.737ZM185.423 117.109C204.509 117.109 215.643 126.513 226.424 135.607C227.732 136.714 229.028 137.812 230.333 138.891C229.535 138.298 228.739 137.696 227.941 137.098C216.923 128.826 205.529 120.271 185.42 120.271C171.003 120.271 160.979 124.634 151.615 130.176C161.132 122.947 171.118 117.109 185.423 117.109ZM185.423 109.584C200.004 109.584 209.938 116.671 218.718 125.065C210.114 118.007 200.09 112.358 185.423 112.358C174.751 112.358 166.497 115.895 159.138 121.078C166.647 114.344 174.876 109.584 185.423 109.584ZM94.7102 148.77C112.534 148.77 124.537 145.117 134.895 140.643C124.486 146.794 112.565 151.938 94.7102 151.938C72.1735 151.938 61.6089 143.865 51.3988 136.063C49.5119 134.616 47.607 133.163 45.6155 131.76C47.0664 132.683 48.4919 133.63 49.9301 134.587C60.3951 141.562 71.2147 148.77 94.7102 148.77ZM94.7102 163.421C77.3958 163.421 67.2367 156.484 58.7402 148.29C67.1577 155.149 77.5463 160.648 94.7102 160.648C107.822 160.648 117.77 156.747 126.218 151.166C117.701 158.291 107.792 163.421 94.7102 163.421ZM185.423 124.23C170.419 124.23 160.135 127.805 150.422 132.23C160.27 126.124 170.467 121.062 185.423 121.062C204.548 121.062 215.666 129.422 226.437 137.505C228.043 138.705 229.637 139.899 231.243 141.055C230.134 140.341 229.015 139.618 227.906 138.889C216.887 131.681 205.494 124.23 185.423 124.23Z" fill="black"/>
</svg>
