<svg width="275" height="196" viewBox="0 0 275 196" fill="none" xmlns="http://www.w3.org/2000/svg">
<rect width="275" height="196" rx="16" fill="white"/>
<g clip-path="url(#clip0_35_1116)">
<path d="M11.7467 60.5439C26.6386 60.5439 36.15 50.7318 46.2122 40.3408C57.3301 28.8674 68.8228 17 89.5796 17C108.967 17 120.371 29.8632 132.45 43.4785C133.217 44.343 133.982 45.2025 134.752 46.068C146.505 51.669 159.293 56.9784 180.292 56.9784C202.867 56.9784 213.424 49.9449 223.634 43.1442C231.254 38.0586 245.559 29.6642 263.253 29.6642C264.222 29.6642 265 30.0234 265 30.4611C265 30.8988 264.222 31.248 263.251 31.248C244.873 31.248 235.683 40.9725 225.955 51.2661C215.403 62.443 204.476 74 180.29 74C156.233 74 142.787 59.369 129.961 44.922C118.325 39.3022 107.282 34.0216 89.5771 34.0216C70.414 34.0216 59.2834 41.3028 48.525 48.3422C40.6558 53.4865 25.9399 62.1276 11.7442 62.1276C10.7854 62.1276 10 61.7735 10 61.3358C10 60.898 10.7879 60.5439 11.7467 60.5439ZM48.6015 42.7115C47.8416 43.4208 47.0945 44.1251 46.3346 44.8245C46.5717 44.6255 46.8089 44.4306 47.0435 44.2316C58.0492 34.9289 69.4425 25.3108 89.5771 25.3108C103.337 25.3108 113.098 30.2412 122.061 36.6828C112.922 28.546 103.209 22.1443 89.5771 22.1443C70.5135 22.1443 59.3701 32.603 48.6015 42.7115ZM223.563 48.8854C224.254 48.2199 224.945 47.5643 225.631 46.9087C225.463 47.0539 225.294 47.2002 225.126 47.3414C214.666 56.3616 203.854 65.6882 180.29 65.6882C163.835 65.6882 152.35 60.5538 142.558 53.9422C152.426 62.244 163.855 68.8547 180.29 68.8547C202.77 68.8557 213.348 58.7024 223.563 48.8854ZM227.367 43.7372C226.615 44.3102 225.86 44.8832 225.108 45.4662C214.643 53.4617 203.824 61.7297 180.29 61.7297C163.151 61.7297 151.396 57.251 141.324 51.6262C151.46 58.9322 163.151 64.8973 180.29 64.8973C202.796 64.8973 213.366 55.7896 223.576 46.9773C224.846 45.884 226.103 44.8006 227.367 43.7372ZM89.5771 26.1087C70.4905 26.1087 59.3573 35.5129 48.576 44.6066C47.2679 45.7139 45.9725 46.8122 44.6669 47.8906C45.4651 47.2977 46.2606 46.6958 47.0588 46.0979C58.0772 37.8259 69.4705 29.2713 89.5796 29.2713C103.997 29.2713 114.021 33.6336 123.385 39.1758C113.868 31.9474 103.882 26.1087 89.5771 26.1087ZM89.5771 18.5838C74.9963 18.5838 65.0616 25.671 56.282 34.0654C64.8857 27.007 74.9096 21.3584 89.5771 21.3584C100.249 21.3584 108.503 24.895 115.862 30.0781C108.353 23.3441 100.124 18.5838 89.5771 18.5838ZM180.29 57.7703C162.466 57.7703 150.463 54.1173 140.105 49.6435C150.514 55.7935 162.435 60.9378 180.29 60.9378C202.827 60.9378 213.391 52.8648 223.601 45.0633C225.488 43.6158 227.393 42.1633 229.385 40.7596C227.934 41.6828 226.508 42.6299 225.07 43.5869C214.605 50.5617 203.785 57.7703 180.29 57.7703ZM180.29 72.4212C197.604 72.4212 207.763 65.4842 216.26 57.2898C207.842 64.1492 197.454 69.6476 180.29 69.6476C167.178 69.6476 157.23 65.7469 148.782 60.1658C157.299 67.2908 167.208 72.4212 180.29 72.4212ZM89.5771 33.2297C104.581 33.2297 114.865 36.8052 124.578 41.2302C114.73 35.1239 104.533 30.0622 89.5771 30.0622C70.4523 30.0622 59.3344 38.4218 48.5633 46.5048C46.9568 47.7045 45.3631 48.8993 43.7566 50.0553C44.8658 49.341 45.9852 48.6178 47.0945 47.8886C58.1129 40.681 69.5062 33.2297 89.5771 33.2297Z" fill="black"/>
</g>
<g clip-path="url(#clip1_35_1116)">
<path d="M260.547 125.28C260.573 125.213 260.615 125.15 260.626 125.077C260.73 124.405 260.781 123.738 260.781 123.096C260.781 122.676 260.741 122.265 260.703 121.853C261.347 121.695 261.78 121.182 261.699 120.62C261.615 120.037 261.006 119.609 260.3 119.607C258.333 112.405 250.427 107 240.988 107C231.544 107 223.635 112.41 221.673 119.617C220.926 119.579 220.264 120.016 220.175 120.628C220.091 121.218 220.574 121.751 221.27 121.88C221.234 122.282 221.195 122.685 221.195 123.096C221.195 123.739 221.244 124.386 221.348 125.075C221.36 125.155 221.383 125.233 221.413 125.307C220.654 126.07 220.197 127.04 220.197 128.096C220.197 130.546 222.647 132.538 225.659 132.538C225.672 132.538 225.759 132.535 225.769 132.535C226.278 132.52 226.68 132.181 226.68 131.767V124.423C226.68 124.022 226.267 123.686 225.774 123.656C225.753 123.654 225.684 123.651 225.659 123.651C225.102 123.651 224.563 123.72 224.056 123.847C224.039 123.593 224.026 123.342 224.026 123.094C224.026 122.757 224.061 122.427 224.088 122.096C224.695 122.014 225.195 121.634 225.272 121.113C225.341 120.616 225.011 120.16 224.49 119.95C226.246 113.858 232.967 109.304 240.988 109.304C248.989 109.304 255.697 113.838 257.473 119.91C256.902 120.101 256.532 120.579 256.605 121.103C256.685 121.653 257.233 122.053 257.886 122.102C257.915 122.431 257.948 122.759 257.948 123.095C257.948 123.341 257.937 123.592 257.918 123.846C257.414 123.721 256.878 123.652 256.323 123.652C256.313 123.652 256.225 123.656 256.214 123.656C255.706 123.672 255.304 124.01 255.304 124.424V131.768C255.304 132.169 255.716 132.505 256.209 132.535C256.232 132.537 256.3 132.539 256.323 132.539C259.337 132.539 261.788 130.547 261.788 128.097C261.787 127.028 261.319 126.047 260.547 125.28Z" fill="black"/>
<path d="M251.022 125.178C251.022 119.334 246.528 114.581 241.002 114.581C235.475 114.581 230.981 119.334 230.981 125.178C230.981 131.021 235.475 135.776 241.002 135.776C246.527 135.775 251.022 131.021 251.022 125.178Z" fill="black"/>
<path d="M241.001 137.837C230.032 137.837 220.415 144.053 217.071 153.303C216.927 153.699 217.006 154.131 217.282 154.467C217.561 154.803 218.001 155 218.47 155H263.531C264 155 264.441 154.803 264.719 154.467C264.995 154.131 265.073 153.699 264.93 153.303C261.586 144.053 251.969 137.837 241.001 137.837Z" fill="black"/>
</g>
<path d="M83.8242 181L89.0977 166.713H91.8125L97.125 181H94.3516L90.709 170.707C90.6309 170.486 90.5658 170.274 90.5137 170.072C90.4616 169.87 90.416 169.669 90.377 169.467H90.2988C90.2533 169.669 90.2044 169.87 90.1523 170.072C90.1003 170.274 90.0352 170.486 89.957 170.707L86.3242 181H83.8242ZM86.5684 177.689L87.1934 175.717H93.5996L94.2246 177.689H86.5684ZM97.4336 181V166.781H101.994C103.863 166.781 105.409 167.374 106.633 168.559C107.863 169.737 108.479 171.368 108.479 173.451V174.33C108.479 176.407 107.863 178.038 106.633 179.223C105.409 180.408 103.863 181 101.994 181H97.4336ZM100.041 179.008H101.936C103.107 179.008 104.045 178.614 104.748 177.826C105.451 177.038 105.803 175.899 105.803 174.408V173.383C105.803 171.885 105.448 170.746 104.738 169.965C104.035 169.177 103.101 168.783 101.936 168.783H100.041V179.008ZM108.055 181L113.328 166.713H116.043L121.355 181H118.582L114.939 170.707C114.861 170.486 114.796 170.274 114.744 170.072C114.692 169.87 114.646 169.669 114.607 169.467H114.529C114.484 169.669 114.435 169.87 114.383 170.072C114.331 170.274 114.266 170.486 114.188 170.707L110.555 181H108.055ZM110.799 177.689L111.424 175.717H117.83L118.455 177.689H110.799ZM121.664 181V166.781H126.85C128.445 166.781 129.669 167.182 130.521 167.982C131.374 168.783 131.801 169.89 131.801 171.303C131.801 172.709 131.374 173.819 130.521 174.633C129.675 175.447 128.448 175.854 126.84 175.854H124.291V181H121.664ZM124.291 173.861H126.615C127.572 173.861 128.236 173.627 128.607 173.158C128.985 172.683 129.174 172.068 129.174 171.312C129.174 170.557 128.985 169.949 128.607 169.486C128.236 169.024 127.572 168.793 126.615 168.793H124.291V173.861ZM131.494 168.832V166.781H142.676V168.832H138.408V181H135.771V168.832H131.494ZM143.375 181V166.781H146.012V181H143.375ZM146.33 166.781H149.143L152.629 176.752C152.694 176.934 152.746 177.107 152.785 177.27C152.831 177.426 152.876 177.598 152.922 177.787H153C153.046 177.598 153.091 177.423 153.137 177.26C153.189 177.097 153.244 176.928 153.303 176.752L156.838 166.781H159.387L154.221 181.068H151.496L146.33 166.781ZM159.695 181V166.781H168.934V168.832H162.293V172.689H168.045V174.682H162.293V178.969H169.041V181H159.695ZM173.887 181V166.781H182.9V168.832H176.514V173.051H182.07V175.062H176.514V181H173.887ZM183.883 181V166.781H193.121V168.832H186.48V172.689H192.232V174.682H186.48V178.969H193.229V181H183.883ZM194.289 181V166.781H203.527V168.832H196.887V172.689H202.639V174.682H196.887V178.969H203.635V181H194.289ZM204.695 181V166.781H209.256C211.124 166.781 212.671 167.374 213.895 168.559C215.125 169.737 215.74 171.368 215.74 173.451V174.33C215.74 176.407 215.125 178.038 213.895 179.223C212.671 180.408 211.124 181 209.256 181H204.695ZM207.303 179.008H209.197C210.369 179.008 211.307 178.614 212.01 177.826C212.713 177.038 213.064 175.899 213.064 174.408V173.383C213.064 171.885 212.71 170.746 212 169.965C211.297 169.177 210.363 168.783 209.197 168.783H207.303V179.008ZM217.211 181V166.781H222.299C223.803 166.781 224.975 167.087 225.814 167.699C226.661 168.305 227.084 169.245 227.084 170.521C227.084 171.309 226.898 171.957 226.527 172.465C226.163 172.966 225.707 173.311 225.16 173.5V173.539C225.831 173.734 226.384 174.115 226.82 174.682C227.257 175.248 227.475 175.997 227.475 176.928C227.475 178.217 227.029 179.219 226.137 179.936C225.245 180.645 224.06 181 222.582 181H217.211ZM219.799 179.086H222.465C223.292 179.086 223.897 178.881 224.281 178.471C224.665 178.061 224.857 177.504 224.857 176.801C224.857 176.104 224.665 175.551 224.281 175.141C223.897 174.73 223.292 174.525 222.465 174.525H219.799V179.086ZM219.799 172.729H222.191C223.012 172.729 223.601 172.553 223.959 172.201C224.317 171.843 224.496 171.342 224.496 170.697C224.496 170.059 224.317 169.571 223.959 169.232C223.601 168.887 223.012 168.715 222.191 168.715H219.799V172.729ZM227.148 181L232.422 166.713H235.137L240.449 181H237.676L234.033 170.707C233.955 170.486 233.89 170.274 233.838 170.072C233.786 169.87 233.74 169.669 233.701 169.467H233.623C233.577 169.669 233.529 169.87 233.477 170.072C233.424 170.274 233.359 170.486 233.281 170.707L229.648 181H227.148ZM229.893 177.689L230.518 175.717H236.924L237.549 177.689H229.893ZM240.123 174.33V173.451C240.123 171.179 240.693 169.454 241.832 168.275C242.971 167.097 244.439 166.508 246.236 166.508C247.968 166.508 249.332 166.967 250.328 167.885C251.331 168.796 251.832 169.965 251.832 171.391V171.654H249.205V171.342C249.205 170.476 248.958 169.796 248.463 169.301C247.975 168.799 247.229 168.549 246.227 168.549C245.211 168.549 244.391 168.917 243.766 169.652C243.141 170.388 242.828 171.563 242.828 173.178V174.604C242.828 176.114 243.137 177.263 243.756 178.051C244.374 178.839 245.208 179.232 246.256 179.232C247.206 179.232 247.919 178.975 248.395 178.461C248.876 177.947 249.143 177.263 249.195 176.41L249.205 176.137H251.832L251.822 176.43C251.751 177.823 251.236 178.979 250.279 179.896C249.322 180.814 247.975 181.273 246.236 181.273C244.42 181.273 242.945 180.681 241.812 179.496C240.686 178.305 240.123 176.583 240.123 174.33ZM252.941 181V166.781H255.568V172.982L260.988 166.781H263.889L255.568 176.117V181H252.941ZM261.33 181L256.262 173.979L257.941 172.094L264.494 181H261.33Z" fill="black"/>
<defs>
<clipPath id="clip0_35_1116">
<rect width="255" height="57" fill="white" transform="translate(10 17)"/>
</clipPath>
<clipPath id="clip1_35_1116">
<rect width="47.9998" height="48" fill="white" transform="translate(217 107)"/>
</clipPath>
</defs>
</svg>
