<svg width="275" height="196" viewBox="0 0 275 196" fill="none" xmlns="http://www.w3.org/2000/svg">
<rect width="275" height="196" rx="16" fill="#EB50B8"/>
<path d="M138.601 56.2891C135.528 56.2891 132.554 57.0164 129.683 58.4661C126.812 59.9142 124.476 61.8727 122.679 64.3401C120.242 67.6749 119.023 71.9807 119.023 77.2591H134.034C134.034 73.317 135.454 71.3451 138.298 71.3451C139.341 71.3451 140.226 71.7088 140.95 72.4311C141.674 73.1585 142.039 74.0443 142.039 75.0837C142.039 76.882 140.922 78.2784 138.688 79.2643L135.73 80.5672C133.584 81.5265 132.103 82.8694 131.292 84.5894C130.479 86.316 130.075 88.9953 130.075 92.6204V95.3597H146.214C146.214 93.2693 146.403 91.9064 146.78 91.2708C147.157 90.6301 148.215 89.8761 149.957 89.0086C155.292 86.3427 157.961 81.7116 157.961 75.1304C157.961 69.7903 156.098 65.3193 152.372 61.7076C148.644 58.0958 144.055 56.2891 138.601 56.2891Z" fill="#F4F4F4"/>
<path d="M138.428 97.6685C135.585 97.6685 133.164 98.6745 131.163 100.691C129.161 102.703 128.16 105.164 128.16 108.062C128.16 111.051 129.123 113.505 131.053 115.437C132.982 117.369 135.44 118.328 138.428 118.328C141.299 118.328 143.75 117.336 145.78 115.352C147.81 113.367 148.826 110.953 148.826 108.107C148.826 105.262 147.802 102.815 145.758 100.751C143.714 98.6945 141.27 97.6685 138.428 97.6685Z" fill="#F4F4F4"/>
<path d="M138.493 51.5796C140.363 51.5796 141.879 50.0648 141.879 48.1913V24.0583C141.879 22.1865 140.363 20.6718 138.493 20.6718C136.622 20.6718 135.105 22.1865 135.105 24.0583V48.1913C135.105 50.0648 136.622 51.5796 138.493 51.5796Z" fill="#F4F4F4"/>
<path d="M184.304 46.1344C183.168 44.6463 181.044 44.361 179.556 45.4988L160.381 60.1594C158.896 61.2972 158.611 63.4209 159.748 64.909C160.414 65.7815 161.421 66.2386 162.441 66.2386C163.158 66.2386 163.882 66.0067 164.496 65.5379L183.671 50.8772C185.155 49.7462 185.44 47.6158 184.304 46.1344Z" fill="#F4F4F4"/>
<path d="M150.548 55.4099C151.115 55.7803 151.751 55.9521 152.38 55.9521C153.493 55.9521 154.581 55.4099 155.23 54.404L163.08 42.2307C164.094 40.6642 163.643 38.5672 162.069 37.5546C160.5 36.5353 158.402 36.9924 157.387 38.5605L149.537 50.7321C148.523 52.3003 148.974 54.3973 150.548 55.4099Z" fill="#F4F4F4"/>
<path d="M95.4441 46.4447C93.956 45.3002 91.829 45.5922 90.6962 47.0736C89.5601 48.5617 89.8446 50.6854 91.3293 51.8231L110.504 66.4838C111.118 66.9526 111.842 67.1778 112.559 67.1778C113.579 67.1778 114.586 66.7223 115.252 65.8482C116.388 64.3668 116.104 62.2364 114.619 61.1053L95.4441 46.4447Z" fill="#F4F4F4"/>
<path d="M119.771 55.3431C120.419 56.3491 121.507 56.898 122.62 56.898C123.249 56.898 123.885 56.7194 124.453 56.3558C126.026 55.3431 126.477 53.2461 125.463 51.6713L117.613 39.5064C116.598 37.9315 114.503 37.4811 112.931 38.4937C111.358 39.5064 110.906 41.6034 111.92 43.1765L119.771 55.3431Z" fill="#F4F4F4"/>
<path d="M15.7227 169.328L18.7344 152.266H24.1836C26.418 152.266 28.1289 152.977 29.3164 154.399C30.5117 155.813 30.8867 157.77 30.4414 160.27L30.2539 161.313C29.8164 163.813 28.75 165.774 27.0547 167.195C25.3672 168.617 23.4062 169.328 21.1719 169.328H15.7227ZM19.2734 166.949H21.5C22.8906 166.949 24.082 166.477 25.0742 165.531C26.0664 164.586 26.7188 163.223 27.0312 161.442L27.2539 160.164C27.5664 158.367 27.3906 157.004 26.7266 156.074C26.0625 155.137 25.043 154.668 23.668 154.668H21.4297L19.2734 166.949ZM33.8586 169.328L34.9719 163.047L31.1047 152.266H34.4211L36.7531 158.875C36.8313 159.094 36.8977 159.301 36.9523 159.496C37.007 159.692 37.0539 159.895 37.093 160.106H37.1633C37.2805 159.895 37.3977 159.692 37.5148 159.496C37.6398 159.301 37.7805 159.094 37.9367 158.875L42.4836 152.266H45.7297L38.1594 162.953L37.0344 169.328H33.8586ZM43.1586 169.328L46.1703 152.266H49.3578L53.8813 163.246C53.975 163.488 54.057 163.727 54.1273 163.961C54.1977 164.188 54.2523 164.414 54.2914 164.641H54.3852C54.4164 164.383 54.4516 164.125 54.4906 163.867C54.5375 163.609 54.5805 163.352 54.6195 163.094L56.5414 152.266H59.3305L56.3188 169.328H53.0961L48.5844 158.371C48.4828 158.137 48.4008 157.902 48.3383 157.668C48.2758 157.434 48.2211 157.199 48.1742 156.965H48.0922C48.0609 157.223 48.0219 157.488 47.975 157.762C47.9359 158.035 47.893 158.301 47.8461 158.559L45.9477 169.328H43.1586ZM56.7711 169.328L66.0055 152.195H69.2984L72.5328 169.328H69.275L67.1656 156.965C67.1188 156.692 67.0836 156.438 67.0602 156.203C67.0445 155.961 67.0328 155.719 67.025 155.477H66.943C66.8492 155.719 66.7477 155.961 66.6383 156.203C66.5367 156.438 66.4156 156.692 66.275 156.965L59.8297 169.328H56.7711ZM60.7086 165.356L61.8336 163.012H69.5211L69.8258 165.356H60.7086ZM72.868 169.328L75.8797 152.266H80.0047L82.2313 163.797C82.2781 164.055 82.3172 164.309 82.3484 164.559C82.3797 164.801 82.3953 165.059 82.3953 165.332H82.4773C82.5789 165.059 82.6883 164.801 82.8055 164.559C82.9227 164.309 83.0516 164.055 83.1922 163.797L89.4969 152.266H93.6688L90.657 169.328H87.5398L89.5438 158.008C89.5828 157.75 89.6336 157.465 89.6961 157.152C89.7664 156.84 89.8367 156.559 89.907 156.309H89.825C89.7391 156.567 89.6258 156.852 89.4852 157.164C89.3445 157.469 89.2078 157.75 89.075 158.008L82.9227 169.328H80.2391L78.0828 158.008C78.0359 157.75 78.0008 157.461 77.9773 157.141C77.9539 156.813 77.9422 156.535 77.9422 156.309H77.8484C77.8328 156.535 77.8016 156.813 77.7547 157.141C77.7078 157.461 77.6609 157.75 77.6141 158.008L75.6219 169.328H72.868ZM92.9141 169.328L95.9258 152.266H99.0898L96.0781 169.328H92.9141ZM99.1438 161.313L99.3313 160.281C99.8156 157.531 100.855 155.457 102.448 154.059C104.05 152.652 105.917 151.949 108.05 151.949C110.12 151.949 111.648 152.488 112.632 153.567C113.624 154.645 113.968 156.051 113.663 157.785L113.605 158.149H110.464L110.534 157.703C110.714 156.672 110.566 155.863 110.089 155.277C109.62 154.684 108.796 154.387 107.616 154.387C106.421 154.387 105.378 154.824 104.488 155.699C103.605 156.574 102.995 157.973 102.659 159.895L102.343 161.699C102.023 163.504 102.144 164.875 102.706 165.813C103.269 166.75 104.163 167.219 105.39 167.219C106.515 167.219 107.409 166.914 108.073 166.305C108.745 165.695 109.202 164.871 109.445 163.832L109.515 163.457H112.667L112.585 163.867C112.202 165.547 111.347 166.93 110.019 168.016C108.698 169.102 107.003 169.645 104.933 169.645C102.769 169.645 101.144 168.938 100.058 167.524C98.9719 166.109 98.6672 164.039 99.1438 161.313ZM118.166 161.313L118.353 160.281C118.838 157.547 119.884 155.473 121.494 154.059C123.103 152.645 124.982 151.938 127.13 151.938C129.271 151.938 130.9 152.645 132.017 154.059C133.134 155.473 133.451 157.547 132.966 160.281L132.779 161.313C132.302 164.031 131.255 166.102 129.638 167.524C128.029 168.945 126.15 169.656 124.002 169.656C121.861 169.656 120.232 168.945 119.115 167.524C118.005 166.102 117.689 164.031 118.166 161.313ZM121.353 161.641C121.025 163.492 121.146 164.887 121.716 165.824C122.295 166.754 123.201 167.219 124.435 167.219C125.677 167.219 126.748 166.754 127.646 165.824C128.545 164.887 129.158 163.492 129.486 161.641L129.779 159.965C130.115 158.106 129.994 156.711 129.416 155.781C128.838 154.852 127.931 154.387 126.697 154.387C125.463 154.387 124.392 154.852 123.486 155.781C122.588 156.711 121.974 158.106 121.646 159.965L121.353 161.641ZM128.759 172.492L124.998 168.731L127.248 166.703L131.068 170.406L128.759 172.492ZM133.923 163.305L135.88 152.266H139.032L137.052 163.492C136.817 164.805 136.942 165.754 137.427 166.34C137.911 166.926 138.645 167.219 139.63 167.219C140.606 167.219 141.438 166.934 142.126 166.363C142.813 165.785 143.274 164.828 143.509 163.492L145.489 152.266H148.606L146.649 163.305C146.266 165.469 145.384 167.07 144.001 168.109C142.626 169.141 141.02 169.656 139.184 169.656C137.341 169.656 135.907 169.137 134.884 168.098C133.868 167.051 133.548 165.453 133.923 163.305ZM147.676 169.328L150.688 152.266H161.668L161.234 154.738H153.359L152.539 159.367H159.348L158.926 161.758H152.117L151.227 166.879H159.219L158.785 169.328H147.676ZM160.058 164.594L160.128 164.195H163.257L163.198 164.524C163.042 165.438 163.21 166.121 163.702 166.574C164.195 167.027 164.952 167.254 165.976 167.254C166.991 167.254 167.808 167.039 168.425 166.609C169.05 166.172 169.425 165.586 169.55 164.852C169.675 164.164 169.503 163.613 169.034 163.199C168.573 162.785 167.585 162.356 166.07 161.91C164.366 161.395 163.155 160.738 162.437 159.942C161.718 159.145 161.48 158.086 161.722 156.766C161.98 155.305 162.722 154.137 163.948 153.262C165.175 152.387 166.714 151.949 168.566 151.949C170.394 151.949 171.78 152.399 172.726 153.297C173.679 154.195 174.023 155.395 173.757 156.895L173.687 157.246H170.593L170.652 156.965C170.792 156.176 170.652 155.547 170.23 155.078C169.816 154.602 169.124 154.363 168.155 154.363C167.179 154.363 166.421 154.559 165.882 154.949C165.351 155.34 165.023 155.875 164.898 156.555C164.788 157.18 164.96 157.676 165.413 158.043C165.866 158.41 166.855 158.824 168.378 159.285C170.058 159.785 171.265 160.445 171.999 161.266C172.741 162.078 172.984 163.207 172.726 164.652C172.445 166.207 171.659 167.43 170.37 168.32C169.081 169.211 167.48 169.656 165.566 169.656C163.667 169.656 162.202 169.219 161.171 168.344C160.14 167.469 159.769 166.219 160.058 164.594ZM174.303 154.738L174.737 152.266H188.049L187.616 154.738H182.541L179.975 169.328H176.799L179.377 154.738H174.303ZM185.806 169.328L188.818 152.266H191.982L188.97 169.328H185.806ZM192.036 161.313L192.223 160.281C192.708 157.539 193.755 155.465 195.364 154.059C196.973 152.645 198.848 151.938 200.989 151.938C203.137 151.938 204.77 152.645 205.887 154.059C207.012 155.465 207.329 157.539 206.837 160.281L206.661 161.313C206.177 164.055 205.126 166.133 203.509 167.547C201.899 168.953 200.02 169.656 197.872 169.656C195.731 169.656 194.102 168.953 192.985 167.547C191.876 166.133 191.559 164.055 192.036 161.313ZM195.223 161.664C194.895 163.524 195.016 164.914 195.587 165.836C196.165 166.758 197.071 167.219 198.305 167.219C199.54 167.219 200.61 166.758 201.516 165.836C202.423 164.914 203.036 163.524 203.356 161.664L203.661 159.93C203.997 158.07 203.872 156.684 203.286 155.77C202.708 154.848 201.802 154.387 200.567 154.387C199.325 154.387 198.255 154.848 197.356 155.77C196.466 156.684 195.852 158.07 195.516 159.93L195.223 161.664ZM206.902 169.328L209.914 152.266H213.102L217.625 163.246C217.719 163.488 217.801 163.727 217.871 163.961C217.941 164.188 217.996 164.414 218.035 164.641H218.129C218.16 164.383 218.195 164.125 218.234 163.867C218.281 163.609 218.324 163.352 218.363 163.094L220.285 152.266H223.074L220.062 169.328H216.84L212.328 158.371C212.227 158.137 212.145 157.902 212.082 157.668C212.02 157.434 211.965 157.199 211.918 156.965H211.836C211.805 157.223 211.766 157.488 211.719 157.762C211.68 158.035 211.637 158.301 211.59 158.559L209.691 169.328H206.902ZM222.331 169.328L225.343 152.266H228.507L225.495 169.328H222.331ZM227.752 169.328L230.764 152.266H233.952L238.475 163.246C238.569 163.488 238.651 163.727 238.721 163.961C238.791 164.188 238.846 164.414 238.885 164.641H238.979C239.01 164.383 239.045 164.125 239.084 163.867C239.131 163.609 239.174 163.352 239.213 163.094L241.135 152.266H243.924L240.913 169.328H237.69L233.178 158.371C233.077 158.137 232.995 157.902 232.932 157.668C232.87 157.434 232.815 157.199 232.768 156.965H232.686C232.655 157.223 232.616 157.488 232.569 157.762C232.53 158.035 232.487 158.301 232.44 158.559L230.541 169.328H227.752ZM243.978 161.313L244.166 160.281C244.642 157.586 245.677 155.524 247.271 154.094C248.873 152.656 250.779 151.938 252.99 151.938C255.005 151.938 256.49 152.445 257.443 153.461C258.396 154.477 258.763 155.742 258.545 157.258L258.498 157.481H255.369L255.392 157.317C255.533 156.527 255.361 155.848 254.877 155.277C254.392 154.699 253.587 154.41 252.462 154.41C251.236 154.41 250.173 154.879 249.275 155.817C248.384 156.746 247.779 158.117 247.459 159.93L247.154 161.676C246.834 163.496 246.974 164.875 247.576 165.813C248.177 166.75 249.158 167.219 250.517 167.219C251.205 167.219 251.81 167.145 252.334 166.996C252.865 166.84 253.384 166.598 253.892 166.27L254.502 162.871H251.056L251.455 160.516H257.97L256.775 167.336C256.15 167.883 255.263 168.406 254.115 168.906C252.974 169.406 251.627 169.656 250.072 169.656C247.736 169.656 246.017 168.942 244.916 167.512C243.822 166.074 243.509 164.008 243.978 161.313Z" fill="#F4F4F4"/>
</svg>
