<svg width="26" height="26" viewBox="0 0 26 26" fill="none" xmlns="http://www.w3.org/2000/svg">
<path d="M25 13C25 6.37258 19.6274 1 13 1C6.37258 1 1 6.37258 1 13C1 19.6274 6.37258 25 13 25C19.6274 25 25 19.6274 25 13Z" fill="#EB50B8"/>
<path d="M7.66667 12.3333L11.6667 16.3333L18.3333 9.66667" fill="#EB50B8"/>
<path d="M25 13C25 6.37258 19.6274 1 13 1C6.37258 1 1 6.37258 1 13C1 19.6274 6.37258 25 13 25C19.6274 25 25 19.6274 25 13Z" fill="#EB50B8"/>
<path d="M8.37377 11.6262C7.98325 11.2357 7.35008 11.2357 6.95956 11.6262C6.56904 12.0167 6.56904 12.6499 6.95956 13.0404L7.66667 12.3333L8.37377 11.6262ZM11.6667 16.3333L10.9596 17.0404C11.1471 17.228 11.4014 17.3333 11.6667 17.3333C11.9319 17.3333 12.1862 17.228 12.3738 17.0404L11.6667 16.3333ZM19.0404 10.3738C19.431 9.98325 19.431 9.35008 19.0404 8.95956C18.6499 8.56904 18.0168 8.56904 17.6262 8.95956L18.3333 9.66667L19.0404 10.3738ZM13 1V2C19.0751 2 24 6.92487 24 13H25H26C26 5.8203 20.1797 0 13 0V1ZM25 13H24C24 19.0751 19.0751 24 13 24V25V26C20.1797 26 26 20.1797 26 13H25ZM13 25V24C6.92487 24 2 19.0751 2 13H1H0C0 20.1797 5.8203 26 13 26V25ZM1 13H2C2 6.92487 6.92487 2 13 2V1V0C5.8203 0 0 5.8203 0 13H1ZM7.66667 12.3333L6.95956 13.0404L10.9596 17.0404L11.6667 16.3333L12.3738 15.6262L8.37377 11.6262L7.66667 12.3333ZM11.6667 16.3333L12.3738 17.0404L19.0404 10.3738L18.3333 9.66667L17.6262 8.95956L10.9596 15.6262L11.6667 16.3333Z" fill="#141531"/>
</svg>
