<svg width="1708" height="463" viewBox="0 0 1708 463" fill="none" xmlns="http://www.w3.org/2000/svg">
<path d="M32.4001 0.967419C37.6001 1.23409 46.4001 1.23409 51.7334 0.967419C56.9334 0.834086 52.6667 0.567419 42.0001 0.567419C31.3334 0.567419 27.0667 0.834086 32.4001 0.967419Z" fill="#F4F4F4"/>
<path d="M318.4 0.967419C320.4 1.23409 323.6 1.23409 325.733 0.967419C327.733 0.700753 326 0.434086 322 0.434086C318 0.434086 316.267 0.700753 318.4 0.967419Z" fill="#F4F4F4"/>
<path d="M833.333 1.36745C832.933 2.16745 833.467 2.30078 834.533 1.90078C836.933 0.967447 837.333 0.0341136 835.467 0.0341136C834.667 0.0341136 833.733 0.567447 833.333 1.36745Z" fill="#F4F4F4"/>
<path d="M871.333 0.567447C871.333 0.834114 872.267 1.50078 873.467 1.90078C874.533 2.30078 875.067 2.16745 874.667 1.36745C873.867 0.0341136 871.333 -0.49922 871.333 0.567447Z" fill="#F4F4F4"/>
<path d="M1382.4 0.967419C1384.4 1.23409 1387.6 1.23409 1389.73 0.967419C1391.73 0.700753 1390 0.434086 1386 0.434086C1382 0.434086 1380.27 0.700753 1382.4 0.967419Z" fill="#F4F4F4"/>
<path d="M1656.4 0.967419C1661.6 1.23409 1670.4 1.23409 1675.73 0.967419C1680.93 0.834086 1676.67 0.567419 1666 0.567419C1655.33 0.567419 1651.07 0.834086 1656.4 0.967419Z" fill="#F4F4F4"/>
<path d="M842.533 13.3675L838.667 24.0341H825.333H812.133L822 13.7675C832 3.50081 830.667 4.30081 816.667 17.2341L809.333 24.0341L796 23.9008C783.467 23.9008 782.933 23.7675 786.4 21.9008C788.4 20.8341 790 19.6341 790 19.2341C790 18.8341 787.867 19.7675 785.2 21.2341C779.867 24.4341 784.4 24.1675 722 23.9008C708.4 23.7675 696.133 23.7675 694.667 23.7675C693.2 23.7675 675.2 23.7675 654.667 23.7675C634.133 23.7675 615.867 23.6341 614 23.7675C612.133 23.7675 585.2 23.9008 554 24.1675L497.333 24.5675L545.333 25.3675C571.733 25.7675 591.867 26.3008 590 26.4341C588.133 26.7008 587.333 27.1008 588 27.5008C588.8 27.7675 595.067 27.2341 602.133 26.3008C617.333 24.4341 681.2 24.7008 678 26.7008C675.467 28.3008 675.6 28.3008 686.667 26.3008C692.4 25.3675 704.267 24.8341 717.333 25.1008C737.067 25.5008 738.4 25.6341 735.333 27.5008C733.067 28.8341 732.933 29.2341 734.667 28.7008C743.067 25.7675 747.333 25.3675 761.333 25.6341L776.933 26.0341L759.6 35.6341L742.4 45.3675L717.867 45.2341H693.333L712.4 37.7675C722.8 33.6341 731.2 30.0341 730.933 29.7675C730.667 29.5008 720.933 32.9675 709.2 37.3675L688 45.3675L650.933 45.1008L613.867 44.7008L644.667 36.8341C661.467 32.4341 675.067 28.7008 674.8 28.4341C674.533 28.1675 658.8 31.7675 639.733 36.5675L605.067 45.3675L548.533 45.2341L492 45.1008L539.2 36.9675C565.2 32.4341 585.733 28.5675 585.067 28.4341C584.267 28.1675 560.267 31.9008 531.733 36.7008L479.733 45.3675L395.2 45.1008L310.667 44.7008L336.667 41.7675C415.333 32.9675 451.733 28.7008 449.333 28.3008C447.867 28.1675 411.733 31.9008 369.067 36.7008L291.6 45.3675L163.067 45.2341C92.3998 45.1008 35.8665 44.8341 37.3332 44.5675C38.7998 44.4341 79.0665 41.3675 126.667 37.7675C174.4 34.3008 211.733 31.2341 209.867 30.9675C207.867 30.7008 181.467 32.4341 151.2 34.7008C43.8665 42.7008 25.1998 44.0341 12.9332 44.8341C-19.4668 47.2341 11.3332 48.0341 131.733 48.1675C245.6 48.3008 260.8 48.5675 248 50.0341C208.933 54.7008 4.6665 77.3675 2.79984 77.3675C1.59984 77.3675 0.666504 77.9008 0.666504 78.7008C0.666504 79.6341 46.3998 80.0341 135.067 80.1675C208.933 80.1675 268.8 80.4341 268 80.7008C266.4 81.3675 4.2665 125.367 2.13317 125.367C1.33317 125.367 0.666504 126.301 0.666504 127.367C0.666504 129.101 16.7998 129.367 134.933 129.634C262 130.034 268.8 130.167 260.667 132.167C255.867 133.367 195.733 148.567 127.067 165.901C58.3998 183.234 1.73317 197.367 1.33317 197.367C0.933171 197.367 0.666504 198.567 0.666504 200.034C0.666504 202.701 1.73317 202.701 135.6 202.967L270.667 203.367L261.333 206.967C256.133 208.967 239.467 215.367 224 221.101C172.4 240.567 104.4 266.434 55.9998 284.701C29.5998 294.834 6.39984 303.634 4.39984 304.301C1.4665 305.367 0.666504 306.434 0.666504 309.501V313.367L132.8 313.634L264.933 314.034L133.333 388.034L1.8665 462.034L12.2665 462.434L22.6665 462.834L152 388.034L281.333 313.367H389.067C484.667 313.367 501.733 313.767 495.6 316.301C494.933 316.434 461.467 347.367 421.2 384.701C380.933 422.167 345.6 455.101 342.667 457.768L337.333 462.568H348.667H360L436.667 388.034L513.333 313.367H621.867C724.533 313.367 730.267 313.501 729.333 315.634C728.8 316.967 716.8 349.234 702.533 387.367C688.267 425.501 676 458.034 675.333 459.634C674.133 462.701 674.133 462.701 685.2 462.701H696.533L718.4 395.767C730.533 358.834 741.467 325.234 742.8 320.967L745.2 313.367H854H962.8L965.2 320.967C966.533 325.234 977.467 358.834 989.6 395.634L1011.47 462.701H1022.8C1029.07 462.701 1033.87 462.301 1033.6 461.634C1033.2 461.101 1020.93 428.567 1006.27 389.367C991.6 350.167 979.2 316.967 978.667 315.634C977.733 313.501 983.467 313.367 1086.13 313.367H1194.67L1271.33 388.034L1348 462.568H1359.33H1370.67L1362.27 454.968C1327.47 423.234 1211.47 315.101 1211.47 314.301C1211.33 313.767 1259.73 313.367 1319.07 313.367H1426.67L1556 388.034L1685.33 462.834L1695.73 462.434L1706.13 462.034L1574.67 388.034L1443.07 314.034L1575.2 313.634L1707.33 313.367V309.501C1707.33 306.434 1706.53 305.367 1703.73 304.301C1701.6 303.634 1662.53 288.701 1616.67 271.367C1570.8 254.034 1520.13 234.834 1504 228.701C1487.87 222.567 1466.67 214.567 1456.8 210.834C1446.93 207.101 1438.53 203.767 1438.27 203.367C1437.87 202.967 1498.27 202.701 1572.4 202.701C1706.4 202.701 1707.33 202.701 1707.33 200.034C1707.33 198.567 1707.07 197.367 1706.67 197.367C1706.27 197.367 1649.6 183.234 1580.93 165.901C1512.27 148.567 1452.13 133.367 1447.33 132.167C1439.2 130.167 1446 130.034 1573.07 129.634C1691.2 129.367 1707.33 129.101 1707.33 127.367C1707.33 126.301 1706.67 125.367 1705.87 125.367C1703.6 125.367 1441.6 81.3675 1440 80.7008C1439.33 80.4341 1499.07 80.1675 1573.07 80.1675C1661.6 80.0341 1707.33 79.6341 1707.33 78.7008C1707.33 77.9008 1706.4 77.3675 1705.2 77.3675C1703.33 77.3675 1499.07 54.7008 1460 50.0341C1447.2 48.5675 1462.4 48.3008 1576.4 48.1675C1696.67 48.0341 1727.47 47.2341 1695.07 44.8341C1682.8 44.0341 1664.13 42.7008 1556.8 34.7008C1526.53 32.4341 1500.13 30.7008 1498.13 30.9675C1496.27 31.2341 1533.73 34.3008 1581.33 37.7675C1629.07 41.3675 1669.2 44.4341 1670.67 44.5675C1672.13 44.8341 1615.6 45.1008 1544.93 45.2341L1416.4 45.3675L1338.93 36.7008C1296.27 31.9008 1260.13 28.1675 1258.67 28.3008C1256.27 28.7008 1292.67 32.9675 1371.33 41.7675L1397.33 44.7008L1312.8 45.1008L1228.27 45.3675L1176.27 36.7008C1147.73 31.9008 1123.73 28.1675 1122.93 28.4341C1122.27 28.5675 1142.8 32.4341 1168.8 36.9675L1216 45.1008L1159.33 45.2341L1102.67 45.3675L1066.27 36.1675C1046.13 31.1008 1029.47 26.5675 1029.07 26.1675C1027.47 24.5675 1093.33 24.7008 1105.87 26.3008C1112.93 27.2341 1119.33 27.7675 1120 27.5008C1120.8 27.1008 1119.87 26.7008 1118 26.4341C1116.13 26.3008 1136.27 25.7675 1162.67 25.3675L1210.67 24.5675L1154 24.1675C1122.8 23.9008 1095.87 23.7675 1094 23.7675C1092.13 23.6341 1073.87 23.7675 1053.33 23.7675C1032.8 23.7675 1014.8 23.7675 1013.33 23.7675C1011.87 23.7675 999.6 23.7675 986 23.9008C923.6 24.1675 928.133 24.4341 922.8 21.2341C920.133 19.7675 918 18.8341 918 19.2341C918 19.6341 919.6 20.8341 921.733 21.9008C925.067 23.7675 924.533 23.9008 912 23.9008L898.667 24.0341L891.333 17.2341C877.333 4.30081 876 3.50081 886 13.7675L895.867 24.0341H882.667H869.333L865.467 13.3675C863.333 7.36748 861.467 2.83414 861.067 3.10081C860.8 3.50081 862.133 8.03414 864 13.5008C865.867 18.8341 867.333 23.3675 867.333 23.6341C867.333 23.9008 861.333 24.0341 854 24.0341C846.667 24.0341 840.667 23.9008 840.667 23.6341C840.667 23.3675 842.133 18.8341 844 13.5008C845.867 8.03414 847.2 3.50081 846.933 3.10081C846.533 2.83414 844.667 7.36748 842.533 13.3675ZM1061.07 36.1675L1094.13 44.7008L1057.07 45.1008L1020 45.3675L998.8 37.3675C987.067 32.9675 977.333 29.5008 977.067 29.7675C976.8 30.0341 985.2 33.6341 995.6 37.7675L1014.67 45.2341H990.133L965.6 45.3675L950.8 37.1008C942.667 32.5675 934.8 28.1675 933.467 27.2341C931.333 25.7675 938.133 25.5008 970.667 25.5008C992.533 25.5008 1010.67 25.2341 1010.93 24.9675C1011.87 24.0341 1027.07 27.3675 1061.07 36.1675ZM797.333 35.3675L786.667 45.2341L766 45.3675H745.333L762.667 35.3675L780 25.5008H794H808L797.333 35.3675ZM834.267 35.3675L830.667 45.3675H810L789.333 45.2341L799.733 35.3675L810.267 25.3675H824H837.867L834.267 35.3675ZM871.067 34.4341C872.667 39.5008 874 43.9008 874 44.4341C874 44.9675 865.067 45.3675 854 45.3675C843.067 45.3675 834 44.9675 834 44.4341C834 43.9008 835.333 39.5008 836.933 34.4341L839.867 25.3675H854H868.133L871.067 34.4341ZM908.267 35.3675L918.667 45.2341L898 45.3675H877.333L873.733 35.3675L870.133 25.3675H884H897.733L908.267 35.3675ZM945.333 35.3675L962.667 45.3675H942L921.333 45.2341L910.667 35.3675L900 25.5008H914H928L945.333 35.3675ZM451.333 50.0341C445.867 50.9675 407.2 57.5008 365.467 64.5675L289.6 77.3675L159.467 77.2341L29.3332 77.1008L61.9998 73.2341C79.9998 71.2341 105.2 68.3008 118 66.8341C130.8 65.2341 168 61.1008 200.667 57.3675C233.333 53.7675 263.6 50.1675 268 49.5008C272.4 48.8341 317.733 48.4341 368.667 48.3008C448.667 48.3008 460 48.5675 451.333 50.0341ZM536 62.7008L478.667 77.3675L392 77.2341L305.333 77.1008L326.667 73.3675C338.4 71.2341 359.067 67.6341 372.667 65.3675C386.267 63.1008 413.867 58.3008 434 54.7008L470.667 48.3008H532L593.333 48.1675L536 62.7008ZM679.2 48.5675C678.933 48.8341 661.867 55.3675 641.333 63.2341L604 77.3675L546.667 77.2341C497.867 77.1008 490.267 76.8341 495.333 75.3675C498.667 74.4341 520.533 68.8341 544 62.7008C567.467 56.7008 589.333 50.9675 592.667 50.0341C596.8 48.8341 611.067 48.3008 639.2 48.1675C661.467 48.1675 679.467 48.3008 679.2 48.5675ZM736.533 48.5675C736.267 48.8341 724.667 55.3675 710.8 63.2341L685.733 77.3675L648.533 77.1008L611.333 76.7008L647.733 62.5675L684 48.3008L710.533 48.1675C725.2 48.0341 736.8 48.3008 736.533 48.5675ZM772.4 58.4341C766.267 64.3008 759.2 70.8341 756.4 73.2341L751.6 77.3675L721.467 77.1008L691.2 76.7008L715.6 62.4341L740 48.3008L761.733 48.1675L783.467 48.0341L772.4 58.4341ZM824.133 62.7008L818.667 77.3675H787.467H756.4L771.467 62.7008L786.667 48.1675L808.133 48.0341H829.6L824.133 62.7008ZM880.267 62.0341C882.667 69.3675 884.667 75.7675 884.667 76.3008C884.667 76.9675 870.933 77.3675 854 77.3675C837.2 77.3675 823.333 76.9675 823.333 76.5675C823.333 75.6341 831.467 50.3008 832.267 48.9675C832.533 48.4341 842.533 48.1675 854.4 48.3008L875.867 48.7008L880.267 62.0341ZM936.533 62.7008L951.6 77.3675H920.533H889.333L883.867 62.7008L878.4 48.0341H899.867L921.333 48.1675L936.533 62.7008ZM991.867 62.3008L1016.8 76.7008L986.533 77.1008L956.4 77.3675L951.6 73.2341C948.8 70.8341 941.733 64.3008 935.6 58.4341L924.533 48.0341H945.733H967.067L991.867 62.3008ZM1059.6 62.3008L1096.67 76.7008L1059.47 77.1008L1022.27 77.3675L997.2 63.2341C983.333 55.3675 971.733 48.8341 971.467 48.5675C971.2 48.3008 982.533 48.0341 996.667 48.0341H1022.53L1059.6 62.3008ZM1117.07 50.5675C1122.27 52.0341 1144.67 57.7675 1166.67 63.5008C1188.67 69.1008 1209.33 74.4341 1212.67 75.3675C1217.73 76.8341 1210.13 77.1008 1161.33 77.2341L1104 77.3675L1066.67 63.2341C1046.13 55.3675 1029.07 48.8341 1028.8 48.5675C1028.53 48.3008 1046 48.0341 1067.87 48.0341C1102.67 48.0341 1108.53 48.3008 1117.07 50.5675ZM1296.4 58.7008C1330.67 64.5675 1368.53 71.1008 1380.67 73.2341L1402.67 77.1008L1316 77.2341L1229.33 77.3675L1172 62.7008L1114.67 48.1675H1174.4L1234.13 48.0341L1296.4 58.7008ZM1472 53.1008C1508.4 57.5008 1573.2 64.9675 1639.2 72.3008L1678.53 76.7008L1548.53 77.1008L1418.67 77.3675L1342.67 64.5675C1300.93 57.5008 1262.13 50.9675 1256.67 50.0341C1248 48.5675 1259.87 48.3008 1342 48.5675L1437.33 48.8341L1472 53.1008ZM464.533 80.5675C464.267 80.8341 424.267 91.1008 375.733 103.234L287.6 125.367L156.4 125.234C84.3998 125.101 26.7998 124.701 28.6665 124.434C30.5332 124.167 88.6665 114.034 158 102.034L284 80.3008L374.533 80.1675C424.4 80.0341 464.8 80.3008 464.533 80.5675ZM590 82.3008C586 84.0341 530.667 105.234 489.067 120.834L476.933 125.367L390 125.101L303.067 124.701L319.6 120.567C345.6 113.901 412 96.7008 444.667 88.1675L474.667 80.3008H534.667C589.867 80.3008 594.267 80.4341 590 82.3008ZM678.933 80.8341C678.533 81.2341 660.667 91.5008 639.2 103.501L600.267 125.367L543.867 125.101L487.333 124.701L544.4 102.434L601.333 80.3008L640.533 80.1675C662.133 80.0341 679.467 80.4341 678.933 80.8341ZM746 83.2341C744.133 84.9675 733.2 95.1008 721.6 105.901L700.533 125.367H653.733H606.8L646 102.701L685.333 80.0341H717.333H749.333L746 83.2341ZM816.667 81.2341C816.667 81.7675 813.067 91.9008 808.8 103.501L800.933 124.701L754 125.101L707.067 125.367L730.133 102.834L753.333 80.1675L785.067 80.0341C802.4 80.0341 816.667 80.5675 816.667 81.2341ZM892.8 100.967C896.533 112.567 900 122.834 900.4 123.634C900.8 124.967 890.933 125.367 854 125.367C817.067 125.367 807.2 124.967 807.6 123.634C808 122.834 811.467 112.567 815.2 100.967L822.267 80.0341H854H885.733L892.8 100.967ZM977.867 102.834L1000.93 125.367L954 125.101L907.067 124.701L899.2 103.501C894.933 91.9008 891.333 81.7675 891.333 81.2341C891.333 80.5675 905.6 80.0341 923.067 80.0341L954.667 80.1675L977.867 102.834ZM1062 102.701L1101.2 125.367H1054.27H1007.47L986.4 105.901C974.8 95.1008 963.867 84.9675 962 83.2341L958.667 80.0341H990.667H1022.67L1062 102.701ZM1162.93 102.301L1220.67 124.701L1164.13 125.101L1107.73 125.367L1068.8 103.501C1047.33 91.5008 1029.47 81.2341 1029.07 80.8341C1028.53 80.4341 1045.6 80.0341 1066.67 80.0341H1105.2L1162.93 102.301ZM1263.07 88.1675C1280.4 92.7008 1311.73 100.834 1332.67 106.167C1353.6 111.634 1378.4 118.034 1387.73 120.301L1404.93 124.701L1318 125.101L1231.07 125.367L1218.93 120.834C1177.33 105.234 1122 84.0341 1118 82.3008C1113.73 80.4341 1118 80.3008 1172.4 80.1675L1231.33 80.0341L1263.07 88.1675ZM1541.87 100.834C1608.27 112.301 1667.2 122.434 1672.67 123.367C1681.2 124.834 1663.6 125.101 1551.6 125.234L1420.4 125.367L1332.27 103.234C1283.73 91.1008 1243.73 80.8341 1243.47 80.5675C1243.2 80.3008 1282.93 80.0341 1332 80.0341H1421.07L1541.87 100.834ZM462.667 130.567C458.533 132.301 405.467 152.434 346.667 174.701C317.333 185.767 291.867 195.367 290 196.034C287.867 196.967 238.8 197.234 155.333 197.101L24.1332 196.701L35.9998 193.767C42.6665 192.034 58.5332 188.034 71.3332 184.701C84.1332 181.367 107.6 175.234 123.333 171.234C139.067 167.234 158.667 162.167 166.667 160.034C174.8 157.901 195.733 152.434 213.333 147.901C230.933 143.367 254 137.501 264.667 134.701L284 129.634L374.667 129.501C424.533 129.501 464.133 130.034 462.667 130.567ZM590.667 130.567C589.867 131.234 563.067 146.434 530.8 164.567L472.4 197.367L386.933 197.101L301.467 196.701L354.8 176.167C384 164.834 423.067 149.767 441.333 142.567L474.667 129.501H533.333C566.667 129.367 591.333 129.901 590.667 130.567ZM692 133.234C689.733 135.367 673.333 150.701 655.467 167.234L622.933 197.367H552.8C510.533 197.367 483.467 196.834 484.667 196.034C485.733 195.367 512.133 180.167 543.333 162.167L600 129.367H648H696L692 133.234ZM794.4 141.634C791.867 148.434 786.133 163.767 781.733 175.634L773.733 197.367H703.467L633.333 197.234L668 163.367L702.667 129.501L750.8 129.367H799.067L794.4 141.634ZM913.333 163.367L924.133 196.701L889.067 197.101C869.733 197.234 838.267 197.234 818.933 197.101L783.867 196.701L794.267 164.701C800 147.101 804.933 131.901 805.333 130.967C805.733 129.634 816.267 129.367 854.133 129.634L902.4 130.034L913.333 163.367ZM1040 163.367L1074.67 197.234L1004.53 197.367H934.267L926.267 175.634C921.867 163.767 916.133 148.434 913.6 141.634L908.933 129.367H957.2L1005.33 129.501L1040 163.367ZM1164.67 162.167C1195.87 180.167 1222.27 195.367 1223.33 196.034C1224.53 196.834 1197.47 197.367 1155.2 197.367H1085.07L1052.53 167.234C1034.67 150.701 1018.27 135.367 1016 133.234L1012 129.367H1060H1108L1164.67 162.167ZM1271.6 144.567C1293.07 152.834 1332.27 168.034 1358.53 178.167L1406.53 196.701L1321.07 197.101L1235.6 197.367L1177.2 164.567C1144.93 146.434 1118.13 131.234 1117.47 130.567C1116.67 129.901 1141.2 129.367 1174.27 129.367H1232.53L1271.6 144.567ZM1453.87 137.501C1471.2 141.901 1493.33 147.634 1503.07 150.167C1540.8 159.901 1557.07 164.167 1584.67 171.234C1600.4 175.234 1623.87 181.367 1636.67 184.701C1649.47 188.034 1665.33 192.034 1672 193.767L1683.87 196.701L1552.67 197.101C1469.2 197.234 1420.13 196.967 1418 196.034C1416.13 195.367 1390.67 185.767 1361.33 174.701C1302.53 152.434 1249.47 132.301 1245.33 130.567C1243.87 130.034 1283.07 129.501 1332.53 129.501L1422.4 129.367L1453.87 137.501ZM460 203.901C459.2 204.567 418.533 227.634 369.467 255.234L280.4 305.367L151.467 305.101C29.7332 304.701 22.9332 304.567 28.6665 302.434C34.5332 300.301 251.333 216.301 274 207.367L285.333 202.834H373.333C426.133 202.701 460.667 203.234 460 203.901ZM615.333 204.567C614.267 205.634 589.333 228.701 560 255.901L506.667 305.367H401.333C335.2 305.367 296.8 304.834 298 304.034C299.067 303.367 338.667 280.301 386 252.834L472 202.967L544.667 202.834C607.2 202.701 616.933 202.967 615.333 204.567ZM770.933 204.301C770.667 205.234 762 228.434 751.867 255.634L733.333 305.367H627.333H521.333L525.333 301.634C527.6 299.501 551.333 276.434 578.267 250.301L627.2 202.701H699.467C756.667 202.701 771.467 203.101 770.933 204.301ZM942.933 253.367C951.867 280.834 959.333 303.767 959.333 304.301C959.333 304.967 912 305.367 854 305.367C796.133 305.367 748.667 304.967 748.667 304.567C748.667 303.501 780.8 204.967 781.6 203.634C781.867 203.101 814.667 202.834 854.267 202.967L926.533 203.367L942.933 253.367ZM1129.73 250.301C1156.67 276.434 1180.4 299.501 1182.67 301.634L1186.67 305.367H1080.67H974.667L956.133 255.634C946 228.434 937.333 205.234 937.067 204.301C936.533 203.101 951.333 202.701 1008.53 202.701H1080.8L1129.73 250.301ZM1319.47 251.501C1366 278.301 1405.87 301.367 1408 302.834C1412 305.234 1410.67 305.367 1306.67 305.367H1201.33L1148 255.901C1118.67 228.701 1093.73 205.634 1092.67 204.567C1091.07 202.967 1100.53 202.701 1162.93 202.701H1234.93L1319.47 251.501ZM1466.27 219.901C1633.33 284.701 1674 300.567 1679.33 302.434C1685.07 304.567 1678.13 304.701 1556.53 305.101L1427.6 305.367L1338.53 255.234C1289.47 227.634 1248.8 204.567 1248.13 203.901C1247.33 203.234 1281.6 202.701 1334.4 202.701H1421.87L1466.27 219.901Z" fill="#F4F4F4"/>
<path d="M971.333 28.034C972.4 28.7007 974 29.3674 974.667 29.3674C975.467 29.3674 975.067 28.7007 974 28.034C972.933 27.3674 971.467 26.7007 970.667 26.7007C970 26.7007 970.267 27.3674 971.333 28.034Z" fill="#F4F4F4"/>
<path d="M17.7336 10.3008C22.9336 10.5675 31.7336 10.5675 37.0669 10.3008C42.2669 10.1675 38.0002 9.90079 27.3336 9.90079C16.6669 9.90079 12.4002 10.1675 17.7336 10.3008Z" fill="#F4F4F4"/>
<path d="M302.4 10.3008C305.867 10.5675 311.333 10.5675 314.4 10.3008C317.467 10.0341 314.667 9.90079 308 9.90079C301.467 9.90079 298.933 10.0341 302.4 10.3008Z" fill="#F4F4F4"/>
<path d="M488.4 10.3008C490.8 10.5675 494.4 10.5675 496.4 10.3008C498.4 10.0341 496.4 9.76746 492 9.76746C487.6 9.76746 486 10.0341 488.4 10.3008Z" fill="#F4F4F4"/>
<path d="M611.066 10.3008C612.666 10.5675 615.333 10.5675 617.066 10.3008C618.666 10.0341 617.333 9.76746 614 9.76746C610.666 9.76746 609.333 10.0341 611.066 10.3008Z" fill="#F4F4F4"/>
<path d="M692.4 10.3008C693.2 10.5675 694.8 10.5675 695.734 10.3008C696.534 9.90079 695.867 9.63413 694 9.63413C692.134 9.63413 691.467 9.90079 692.4 10.3008Z" fill="#F4F4F4"/>
<path d="M747.067 10.3009C748 10.7009 749.2 10.5676 749.6 10.1676C750.133 9.76757 749.333 9.36757 747.867 9.5009C746.4 9.5009 746 9.9009 747.067 10.3009Z" fill="#F4F4F4"/>
<path d="M803.333 10.7008C802.267 11.3675 802 12.0341 802.667 12.0341C803.467 12.0341 804.933 11.3675 806 10.7008C807.067 10.0341 807.467 9.36745 806.667 9.36745C806 9.36745 804.4 10.0341 803.333 10.7008Z" fill="#F4F4F4"/>
<path d="M902 10.7008C903.067 11.3675 904.667 12.0341 905.333 12.0341C906.133 12.0341 905.733 11.3675 904.667 10.7008C903.6 10.0341 902.133 9.36745 901.333 9.36745C900.667 9.36745 900.933 10.0341 902 10.7008Z" fill="#F4F4F4"/>
<path d="M959.067 10.3009C960 10.7009 961.2 10.5676 961.6 10.1676C962.133 9.76757 961.333 9.36757 959.867 9.5009C958.4 9.5009 958 9.9009 959.067 10.3009Z" fill="#F4F4F4"/>
<path d="M1012.4 10.3008C1013.2 10.5675 1014.8 10.5675 1015.73 10.3008C1016.53 9.90079 1015.87 9.63413 1014 9.63413C1012.13 9.63413 1011.47 9.90079 1012.4 10.3008Z" fill="#F4F4F4"/>
<path d="M1091.07 10.3008C1092.67 10.5675 1095.33 10.5675 1097.07 10.3008C1098.67 10.0341 1097.33 9.76746 1094 9.76746C1090.67 9.76746 1089.33 10.0341 1091.07 10.3008Z" fill="#F4F4F4"/>
<path d="M1212.4 10.3008C1214.8 10.5675 1218.4 10.5675 1220.4 10.3008C1222.4 10.0341 1220.4 9.76746 1216 9.76746C1211.6 9.76746 1210 10.0341 1212.4 10.3008Z" fill="#F4F4F4"/>
<path d="M1394.4 10.3008C1397.87 10.5675 1403.33 10.5675 1406.4 10.3008C1409.47 10.0341 1406.67 9.90079 1400 9.90079C1393.47 9.90079 1390.93 10.0341 1394.4 10.3008Z" fill="#F4F4F4"/>
<path d="M1671.07 10.3008C1676.27 10.5675 1685.07 10.5675 1690.4 10.3008C1695.6 10.1675 1691.33 9.90079 1680.67 9.90079C1670 9.90079 1665.73 10.1675 1671.07 10.3008Z" fill="#F4F4F4"/>
<path d="M265.066 11.6342C268.533 11.9008 274.133 11.9008 277.733 11.6342C281.2 11.3675 278.266 11.2342 271.333 11.2342C264.4 11.2342 261.466 11.3675 265.066 11.6342Z" fill="#F4F4F4"/>
<path d="M464.4 11.6342C466.8 11.9008 470.4 11.9008 472.4 11.6342C474.4 11.3675 472.4 11.1008 468 11.1008C463.6 11.1008 462 11.3675 464.4 11.6342Z" fill="#F4F4F4"/>
<path d="M595.066 11.6342C596.666 11.9008 599.333 11.9008 601.066 11.6342C602.666 11.3675 601.333 11.1008 598 11.1008C594.666 11.1008 593.333 11.3675 595.066 11.6342Z" fill="#F4F4F4"/>
<path d="M682.4 11.6342C683.6 11.9008 685.467 11.9008 686.4 11.6342C687.2 11.2342 686.267 10.9675 684 10.9675C681.867 10.9675 681.067 11.2342 682.4 11.6342Z" fill="#F4F4F4"/>
<path d="M739.067 11.6342C739.867 11.9008 741.467 11.9008 742.4 11.6342C743.2 11.2342 742.533 10.9675 740.667 10.9675C738.8 10.9675 738.133 11.2342 739.067 11.6342Z" fill="#F4F4F4"/>
<path d="M777.734 11.6342C778.667 12.0342 779.867 11.9008 780.267 11.5008C780.8 11.1008 780 10.7008 778.534 10.8342C777.067 10.8342 776.667 11.2342 777.734 11.6342Z" fill="#F4F4F4"/>
<path d="M928.4 11.6342C929.333 12.0342 930.533 11.9008 930.933 11.5008C931.467 11.1008 930.667 10.7008 929.2 10.8342C927.733 10.8342 927.333 11.2342 928.4 11.6342Z" fill="#F4F4F4"/>
<path d="M965.733 11.6342C966.533 11.9008 968.133 11.9008 969.067 11.6342C969.867 11.2342 969.2 10.9675 967.333 10.9675C965.467 10.9675 964.8 11.2342 965.733 11.6342Z" fill="#F4F4F4"/>
<path d="M1022.4 11.6342C1023.6 11.9008 1025.47 11.9008 1026.4 11.6342C1027.2 11.2342 1026.27 10.9675 1024 10.9675C1021.87 10.9675 1021.07 11.2342 1022.4 11.6342Z" fill="#F4F4F4"/>
<path d="M1107.07 11.6342C1108.67 11.9008 1111.33 11.9008 1113.07 11.6342C1114.67 11.3675 1113.33 11.1008 1110 11.1008C1106.67 11.1008 1105.33 11.3675 1107.07 11.6342Z" fill="#F4F4F4"/>
<path d="M1236.4 11.6342C1238.8 11.9008 1242.4 11.9008 1244.4 11.6342C1246.4 11.3675 1244.4 11.1008 1240 11.1008C1235.6 11.1008 1234 11.3675 1236.4 11.6342Z" fill="#F4F4F4"/>
<path d="M1430.4 11.6342C1433.87 11.9008 1439.47 11.9008 1443.07 11.6342C1446.53 11.3675 1443.6 11.2342 1436.67 11.2342C1429.73 11.2342 1426.8 11.3675 1430.4 11.6342Z" fill="#F4F4F4"/>
<path d="M217.067 14.3008C218.267 14.5675 220.4 14.5675 221.733 14.3008C222.933 13.9008 221.867 13.6341 219.333 13.6341C216.8 13.6341 215.733 13.9008 217.067 14.3008Z" fill="#F4F4F4"/>
<path d="M432.4 14.3009C433.333 14.7009 434.533 14.5676 434.933 14.1676C435.467 13.7676 434.667 13.3676 433.2 13.5009C431.733 13.5009 431.333 13.9009 432.4 14.3009Z" fill="#F4F4F4"/>
<path d="M573.734 14.3009C574.667 14.7009 575.867 14.5676 576.267 14.1676C576.8 13.7676 576 13.3676 574.534 13.5009C573.067 13.5009 572.667 13.9009 573.734 14.3009Z" fill="#F4F4F4"/>
<path d="M1132.4 14.3009C1133.33 14.7009 1134.53 14.5676 1134.93 14.1676C1135.47 13.7676 1134.67 13.3676 1133.2 13.5009C1131.73 13.5009 1131.33 13.9009 1132.4 14.3009Z" fill="#F4F4F4"/>
<path d="M1273.73 14.3009C1274.67 14.7009 1275.87 14.5676 1276.27 14.1676C1276.8 13.7676 1276 13.3676 1274.53 13.5009C1273.07 13.5009 1272.67 13.9009 1273.73 14.3009Z" fill="#F4F4F4"/>
<path d="M1486.4 14.3008C1487.6 14.5675 1489.73 14.5675 1491.07 14.3008C1492.27 13.9008 1491.2 13.6341 1488.67 13.6341C1486.13 13.6341 1485.07 13.9008 1486.4 14.3008Z" fill="#F4F4F4"/>
<path d="M197.067 15.6342C198.267 15.9008 200.4 15.9008 201.733 15.6342C202.933 15.2342 201.867 14.9675 199.333 14.9675C196.8 14.9675 195.733 15.2342 197.067 15.6342Z" fill="#F4F4F4"/>
<path d="M417.733 15.6342C418.533 15.9008 420.133 15.9008 421.067 15.6342C421.867 15.2342 421.2 14.9675 419.333 14.9675C417.467 14.9675 416.8 15.2342 417.733 15.6342Z" fill="#F4F4F4"/>
<path d="M1287.07 15.6342C1287.87 15.9008 1289.47 15.9008 1290.4 15.6342C1291.2 15.2342 1290.53 14.9675 1288.67 14.9675C1286.8 14.9675 1286.13 15.2342 1287.07 15.6342Z" fill="#F4F4F4"/>
<path d="M1506.4 15.6342C1507.6 15.9008 1509.73 15.9008 1511.07 15.6342C1512.27 15.2342 1511.2 14.9675 1508.67 14.9675C1506.13 14.9675 1505.07 15.2342 1506.4 15.6342Z" fill="#F4F4F4"/>
<path d="M163.733 16.9674C165.733 17.2341 168.667 17.2341 170.4 16.9674C172 16.7008 170.4 16.4341 166.667 16.4341C163.067 16.4341 161.6 16.7008 163.733 16.9674Z" fill="#F4F4F4"/>
<path d="M396.4 16.9674C397.2 17.2341 398.8 17.2341 399.733 16.9674C400.533 16.5674 399.866 16.3008 398 16.3008C396.133 16.3008 395.466 16.5674 396.4 16.9674Z" fill="#F4F4F4"/>
<path d="M549.733 16.9674C550.533 17.2341 552.133 17.2341 553.067 16.9674C553.867 16.5674 553.2 16.3008 551.333 16.3008C549.467 16.3008 548.8 16.5674 549.733 16.9674Z" fill="#F4F4F4"/>
<path d="M1155.07 16.9674C1155.87 17.2341 1157.47 17.2341 1158.4 16.9674C1159.2 16.5674 1158.53 16.3008 1156.67 16.3008C1154.8 16.3008 1154.13 16.5674 1155.07 16.9674Z" fill="#F4F4F4"/>
<path d="M1307.73 16.9674C1308.93 17.2341 1310.8 17.2341 1311.73 16.9674C1312.53 16.5674 1311.6 16.3008 1309.33 16.3008C1307.2 16.3008 1306.4 16.5674 1307.73 16.9674Z" fill="#F4F4F4"/>
<path d="M1538.4 16.9674C1540.4 17.2341 1543.33 17.2341 1545.07 16.9674C1546.67 16.7008 1545.07 16.4341 1541.33 16.4341C1537.73 16.4341 1536.27 16.7008 1538.4 16.9674Z" fill="#F4F4F4"/>
<path d="M141.067 18.3008C143.067 18.5675 146 18.5675 147.734 18.3008C149.334 18.0341 147.734 17.7675 144 17.7675C140.4 17.7675 138.934 18.0341 141.067 18.3008Z" fill="#F4F4F4"/>
<path d="M382.4 18.3008C383.6 18.5675 385.467 18.5675 386.4 18.3008C387.2 17.9008 386.267 17.6341 384 17.6341C381.867 17.6341 381.067 17.9008 382.4 18.3008Z" fill="#F4F4F4"/>
<path d="M539.733 18.3008C540.933 18.5675 542.8 18.5675 543.733 18.3008C544.533 17.9008 543.6 17.6341 541.333 17.6341C539.2 17.6341 538.4 17.9008 539.733 18.3008Z" fill="#F4F4F4"/>
<path d="M645.734 18.3009C646.667 18.7009 647.867 18.5676 648.267 18.1676C648.8 17.7676 648 17.3676 646.534 17.5009C645.067 17.5009 644.667 17.9009 645.734 18.3009Z" fill="#F4F4F4"/>
<path d="M1060.4 18.3009C1061.33 18.7009 1062.53 18.5676 1062.93 18.1676C1063.47 17.7676 1062.67 17.3676 1061.2 17.5009C1059.73 17.5009 1059.33 17.9009 1060.4 18.3009Z" fill="#F4F4F4"/>
<path d="M1165.07 18.3008C1166.27 18.5675 1168.13 18.5675 1169.07 18.3008C1169.87 17.9008 1168.93 17.6341 1166.67 17.6341C1164.53 17.6341 1163.73 17.9008 1165.07 18.3008Z" fill="#F4F4F4"/>
<path d="M1322.4 18.3008C1323.6 18.5675 1325.47 18.5675 1326.4 18.3008C1327.2 17.9008 1326.27 17.6341 1324 17.6341C1321.87 17.6341 1321.07 17.9008 1322.4 18.3008Z" fill="#F4F4F4"/>
<path d="M1561.07 18.3008C1563.07 18.5675 1566 18.5675 1567.73 18.3008C1569.33 18.0341 1567.73 17.7675 1564 17.7675C1560.4 17.7675 1558.93 18.0341 1561.07 18.3008Z" fill="#F4F4F4"/>
<path d="M109.067 19.6342C111.067 19.9008 114.267 19.9008 116.4 19.6342C118.4 19.3675 116.667 19.1008 112.667 19.1008C108.667 19.1008 106.933 19.3675 109.067 19.6342Z" fill="#F4F4F4"/>
<path d="M361.733 19.6342C363.333 19.9008 365.733 19.9008 367.067 19.6342C368.267 19.2342 366.933 18.9675 364 19.1008C361.067 19.1008 360 19.3675 361.733 19.6342Z" fill="#F4F4F4"/>
<path d="M526.4 19.6342C527.6 19.9008 529.467 19.9008 530.4 19.6342C531.2 19.2342 530.267 18.9675 528 18.9675C525.867 18.9675 525.067 19.2342 526.4 19.6342Z" fill="#F4F4F4"/>
<path d="M636.4 19.6342C637.333 20.0342 638.533 19.9008 638.933 19.5008C639.467 19.1008 638.667 18.7008 637.2 18.8342C635.733 18.8342 635.333 19.2342 636.4 19.6342Z" fill="#F4F4F4"/>
<path d="M1069.73 19.6342C1070.67 20.0342 1071.87 19.9008 1072.27 19.5008C1072.8 19.1008 1072 18.7008 1070.53 18.8342C1069.07 18.8342 1068.67 19.2342 1069.73 19.6342Z" fill="#F4F4F4"/>
<path d="M1178.4 19.6342C1179.6 19.9008 1181.47 19.9008 1182.4 19.6342C1183.2 19.2342 1182.27 18.9675 1180 18.9675C1177.87 18.9675 1177.07 19.2342 1178.4 19.6342Z" fill="#F4F4F4"/>
<path d="M1341.73 19.6342C1343.33 19.9008 1345.73 19.9008 1347.07 19.6342C1348.27 19.2342 1346.93 18.9675 1344 19.1008C1341.07 19.1008 1340 19.3675 1341.73 19.6342Z" fill="#F4F4F4"/>
<path d="M1591.73 19.6342C1593.73 19.9008 1596.93 19.9008 1599.07 19.6342C1601.07 19.3675 1599.33 19.1008 1595.33 19.1008C1591.33 19.1008 1589.6 19.3675 1591.73 19.6342Z" fill="#F4F4F4"/>
<path d="M84.2664 20.9674C86.6664 21.2341 90.9331 21.2341 93.5998 20.9674C96.3998 20.7008 94.5331 20.4341 89.3331 20.4341C84.2664 20.4341 81.9998 20.7008 84.2664 20.9674Z" fill="#F4F4F4"/>
<path d="M345.733 20.9674C347.333 21.2341 349.733 21.2341 351.067 20.9674C352.267 20.5674 350.933 20.3008 348 20.4341C345.067 20.4341 344 20.7008 345.733 20.9674Z" fill="#F4F4F4"/>
<path d="M515.733 20.9674C516.933 21.2341 518.8 21.2341 519.733 20.9674C520.533 20.5674 519.6 20.3008 517.333 20.3008C515.2 20.3008 514.4 20.5674 515.733 20.9674Z" fill="#F4F4F4"/>
<path d="M629.734 20.9674C630.667 21.3674 631.867 21.2341 632.267 20.8341C632.8 20.4341 632 20.0341 630.534 20.1674C629.067 20.1674 628.667 20.5674 629.734 20.9674Z" fill="#F4F4F4"/>
<path d="M704.4 20.9674C705.333 21.3674 706.533 21.2341 706.933 20.8341C707.467 20.4341 706.667 20.0341 705.2 20.1674C703.733 20.1674 703.333 20.5674 704.4 20.9674Z" fill="#F4F4F4"/>
<path d="M1001.73 20.9674C1002.67 21.3674 1003.87 21.2341 1004.27 20.8341C1004.8 20.4341 1004 20.0341 1002.53 20.1674C1001.07 20.1674 1000.67 20.5674 1001.73 20.9674Z" fill="#F4F4F4"/>
<path d="M1076.4 20.9674C1077.33 21.3674 1078.53 21.2341 1078.93 20.8341C1079.47 20.4341 1078.67 20.0341 1077.2 20.1674C1075.73 20.1674 1075.33 20.5674 1076.4 20.9674Z" fill="#F4F4F4"/>
<path d="M1189.07 20.9674C1190.27 21.2341 1192.13 21.2341 1193.07 20.9674C1193.87 20.5674 1192.93 20.3008 1190.67 20.3008C1188.53 20.3008 1187.73 20.5674 1189.07 20.9674Z" fill="#F4F4F4"/>
<path d="M1357.73 20.9674C1359.33 21.2341 1361.73 21.2341 1363.07 20.9674C1364.27 20.5674 1362.93 20.3008 1360 20.4341C1357.07 20.4341 1356 20.7008 1357.73 20.9674Z" fill="#F4F4F4"/>
<path d="M1613.6 20.9674C1616 21.2341 1620.27 21.2341 1622.93 20.9674C1625.73 20.7008 1623.87 20.4341 1618.67 20.4341C1613.6 20.4341 1611.33 20.7008 1613.6 20.9674Z" fill="#F4F4F4"/>
<path d="M56.3999 22.3008C59.4666 22.5675 64.2666 22.5675 67.0666 22.3008C69.7333 22.0341 67.1999 21.7675 61.3333 21.7675C55.4666 21.7675 53.1999 22.0341 56.3999 22.3008Z" fill="#F4F4F4"/>
<path d="M325.067 22.3008C327.067 22.5675 330 22.5675 331.734 22.3008C333.334 22.0341 331.734 21.7675 328 21.7675C324.4 21.7675 322.934 22.0341 325.067 22.3008Z" fill="#F4F4F4"/>
<path d="M502.4 22.3008C503.6 22.5675 505.733 22.5675 507.067 22.3008C508.267 21.9008 507.2 21.6341 504.667 21.6341C502.133 21.6341 501.067 21.9008 502.4 22.3008Z" fill="#F4F4F4"/>
<path d="M620.4 22.3008C621.2 22.5675 622.8 22.5675 623.734 22.3008C624.534 21.9008 623.867 21.6341 622 21.6341C620.134 21.6341 619.467 21.9008 620.4 22.3008Z" fill="#F4F4F4"/>
<path d="M1084.4 22.3008C1085.2 22.5675 1086.8 22.5675 1087.73 22.3008C1088.53 21.9008 1087.87 21.6341 1086 21.6341C1084.13 21.6341 1083.47 21.9008 1084.4 22.3008Z" fill="#F4F4F4"/>
<path d="M1201.07 22.3008C1202.27 22.5675 1204.4 22.5675 1205.73 22.3008C1206.93 21.9008 1205.87 21.6341 1203.33 21.6341C1200.8 21.6341 1199.73 21.9008 1201.07 22.3008Z" fill="#F4F4F4"/>
<path d="M1377.07 22.3008C1379.07 22.5675 1382 22.5675 1383.73 22.3008C1385.33 22.0341 1383.73 21.7675 1380 21.7675C1376.4 21.7675 1374.93 22.0341 1377.07 22.3008Z" fill="#F4F4F4"/>
<path d="M1641.73 22.3008C1644.8 22.5675 1649.6 22.5675 1652.4 22.3008C1655.07 22.0341 1652.53 21.7675 1646.67 21.7675C1640.8 21.7675 1638.53 22.0341 1641.73 22.3008Z" fill="#F4F4F4"/>
<path d="M15.3333 24.034L0 24.834L19.3333 25.1007C30 25.234 39.6 24.7007 40.6667 24.034C42.8 22.5674 42.1333 22.5674 15.3333 24.034Z" fill="#F4F4F4"/>
<path d="M308.534 23.234C308 23.7674 248.667 24.3007 176.534 24.434L45.3335 24.7007L153.334 25.3674C212.8 25.7674 259.2 26.434 256.667 26.834C254.134 27.234 257.734 27.3674 264.667 27.1007C271.6 26.7007 286 26.034 296.534 25.634C323.067 24.3007 462.267 25.3674 457.334 26.834C454.134 27.7674 454.667 27.7674 459.734 27.3674C463.2 26.9674 472.667 26.3007 480.8 25.9007C488.8 25.3674 495.734 24.3007 496.267 23.634C496.8 22.7007 495.467 22.5674 492.534 23.234C487.067 24.3007 323.867 24.3007 315.334 23.234C312 22.834 308.934 22.834 308.534 23.234Z" fill="#F4F4F4"/>
<path d="M1211.73 23.634C1212.27 24.3007 1219.2 25.3674 1227.2 25.9007C1235.33 26.3007 1244.8 26.9674 1248.27 27.3674C1253.33 27.7674 1253.87 27.7674 1250.67 26.834C1245.73 25.3674 1384.93 24.3007 1411.47 25.634C1422 26.034 1436.4 26.7007 1443.33 27.1007C1450.27 27.3674 1453.87 27.234 1451.33 26.834C1448.8 26.434 1495.33 25.7674 1554.67 25.3674L1662.67 24.7007L1532 24.1674C1460.13 23.9007 1398.93 23.634 1396 23.634C1393.07 23.634 1352.27 23.7674 1305.33 23.9007C1258.4 24.034 1218 23.7674 1215.47 23.234C1212.53 22.5674 1211.2 22.7007 1211.73 23.634Z" fill="#F4F4F4"/>
<path d="M1667.33 24.0341C1669.2 25.2341 1708.53 26.0341 1707.2 24.8341C1706.93 24.5674 1697.33 24.0341 1686 23.6341C1672.67 23.1007 1666 23.2341 1667.33 24.0341Z" fill="#F4F4F4"/>
<path d="M222.667 29.3674L213.333 30.1674L221.333 30.3007C225.733 30.3007 233.6 29.9007 238.667 29.3674L248 28.4341H240C235.6 28.4341 227.867 28.8341 222.667 29.3674Z" fill="#F4F4F4"/>
<path d="M1469.33 29.3674C1474.53 29.9007 1482.27 30.3007 1486.67 30.3007H1494.67L1484.67 29.3674C1479.2 28.8341 1471.33 28.4341 1467.33 28.4341C1460.27 28.4341 1460.27 28.4341 1469.33 29.3674Z" fill="#F4F4F4"/>
</svg>
