<svg width="242" height="110" viewBox="0 0 242 110" fill="none" xmlns="http://www.w3.org/2000/svg">
<path d="M67.1042 6.29015C69.6951 2.3631 74.0852 0 78.79 0H215.991C227.142 0 233.818 12.4018 227.677 21.7098L174.896 101.71C172.305 105.637 167.915 108 163.21 108H26.0091C14.8578 108 8.18222 95.5982 14.3233 86.2902L67.1042 6.29015Z" fill="#141531"/>
<path d="M63.4441 38.1498C64.1772 36.9906 65.4531 36.2879 66.8246 36.2879L92.737 36.2874C95.8884 36.2873 97.8022 39.7621 96.1177 42.4255L54.5559 108.138C53.8228 109.297 52.5469 110 51.1754 110L25.263 110.001C22.1116 110.001 20.1978 106.526 21.8823 103.862L63.4441 38.1498Z" fill="#F5FFFE"/>
<path d="M85.3554 2.39557C85.7259 1.83671 86.3518 1.5007 87.0223 1.50068L117.601 1.50007C119.197 1.50004 120.15 3.27573 119.268 4.60519L106.593 23.7245C106.223 24.2834 105.597 24.6194 104.926 24.6194L74.3472 24.62C72.7521 24.62 71.7988 22.8443 72.6802 21.5149L85.3554 2.39557Z" fill="#F5FFFE"/>
<path d="M145.5 3C173.943 3 197 26.0573 197 54.5C197 63.4387 194.721 71.8445 190.715 79.1709L172.592 66.1865C174.14 62.6027 175 58.652 175 54.5C175 38.2076 161.792 25 145.5 25C129.208 25 116 38.2076 116 54.5C116 70.7924 129.208 84 145.5 84C153.808 84 161.312 80.5638 166.674 75.0371L184.671 87.9307C175.225 98.9879 161.183 106 145.5 106C117.057 106 94 82.9427 94 54.5C94 26.0573 117.057 3 145.5 3Z" fill="#F5FFFE"/>
</svg>
