<svg xmlns="http://www.w3.org/2000/svg" version="1.1" viewBox="-5.0 -10.0 110.0 135.0">
 <path d="m78.125 62.5v18.75c0 1.7188 1.4062 3.125 3.125 3.125s3.125-1.4062 3.125-3.125v-18.75c0-1.7188-1.4062-3.125-3.125-3.125s-3.125 1.4062-3.125 3.125z"/>
 <path d="m71.875 84.375v-28.125c0-1.7188-1.4062-3.125-3.125-3.125s-3.125 1.4062-3.125 3.125v28.125c0 1.7188 1.4062 3.125 3.125 3.125s3.125-1.4062 3.125-3.125z"/>
 <path d="m59.375 81.25v-18.75c0-1.7188-1.4062-3.125-3.125-3.125s-3.125 1.4062-3.125 3.125v18.75c0 1.7188 1.4062 3.125 3.125 3.125s3.125-1.4062 3.125-3.125z"/>
 <path d="m12.5 70.031c0 9.5625 7.7812 17.344 17.375 17.344 7.6562 0 14.5-5.125 16.656-12.5l0.625-2.125c0.5-1.6562-0.46875-3.4062-2.125-3.875-1.6562-0.5-3.4062 0.46875-3.875 2.125l-0.625 2.125c-1.4062 4.7812-5.6875 8-10.656 8-6.125 0-11.125-4.9688-11.125-11.094v-31.375c0-10.906 8.875-19.781 19.812-19.781 4.7188 0 9.1562 1.8438 12.5 5.1875s5.1875 7.7812 5.1875 12.5v3.375c0 3.0312-0.65625 6.0625-1.9375 8.7188-0.71875 1.5625-0.0625 3.4375 1.5 4.1562s3.4375 0.0625 4.1562-1.5c1.6562-3.5 2.5-7.4375 2.5-11.406v-3.375c0-6.4062-2.5-12.406-7-16.938-4.5312-4.5312-10.531-7-16.938-7-14.375 0-26.062 11.688-26.062 26.031v31.375z"/>
 <path d="m37.5 31.25c3.4375 0 6.25 2.8125 6.25 6.25 0 1.7188 1.4062 3.125 3.125 3.125s3.125-1.4062 3.125-3.125c0-6.9062-5.5938-12.5-12.5-12.5s-12.5 5.5938-12.5 12.5v9.375c0 1.7188 1.4062 3.125 3.125 3.125h3.125c1.7188 0 3.125 1.4062 3.125 3.125s-1.4062 3.125-3.125 3.125h-3.125c-1.7188 0-3.125 1.4062-3.125 3.125s1.4062 3.125 3.125 3.125h3.125c5.1562 0 9.375-4.2188 9.375-9.375s-4.2188-9.375-9.375-9.375v-6.25c0-3.4375 2.8125-6.25 6.25-6.25z"/>
<text x="0.0" y="117.5" font-size="5.0" font-weight="bold" font-family="Arbeit Regular, Helvetica, Arial-Unicode, Arial, Sans-serif" fill="#000000">Created by Fauzan Adiima</text><text x="0.0" y="122.5" font-size="5.0" font-weight="bold" font-family="Arbeit Regular, Helvetica, Arial-Unicode, Arial, Sans-serif" fill="#000000">from Noun Project</text></svg>