<svg xmlns="http://www.w3.org/2000/svg" data-name="Layer 12" viewBox="0 0 32 40" x="0px" y="0px"><path d="m9.5,15c-4.14,0-7.5,3.36-7.5,7.5s3.36,7.5,7.5,7.5,7.5-3.36,7.5-7.5-3.36-7.5-7.5-7.5Zm-3,5.76c0-.55.45-1,1-1s1,.45,1,1-.45,1-1,1-1-.44-1-1Zm5.05,4.84c-.64.42-1.34.64-2.05.64s-1.41-.22-2.05-.64c-.46-.31-.59-.93-.28-1.39.3-.46.92-.59,1.38-.28.61.41,1.29.41,1.9,0,.46-.31,1.08-.18,1.38.28.31.46.18,1.08-.28,1.39Zm-.05-3.84c-.55,0-1-.44-1-1s.45-1,1-1,1,.45,1,1-.45,1-1,1Z"/><path d="m22.5,2c-4.14,0-7.5,3.36-7.5,7.5s3.36,7.5,7.5,7.5,7.5-3.36,7.5-7.5-3.36-7.5-7.5-7.5Zm-3,5.76c0-.55.45-1,1-1s1,.45,1,1-.45,1-1,1-1-.44-1-1Zm5.33,4.79c-.19.29-.51.45-.83.45-.19,0-.38-.05-.55-.17-.61-.4-1.29-.4-1.9,0-.46.31-1.08.18-1.38-.28-.31-.45-.18-1.08.28-1.38,1.28-.86,2.82-.86,4.1,0,.46.3.59.93.28,1.38Zm-.33-3.79c-.55,0-1-.44-1-1s.45-1,1-1,1,.45,1,1-.45,1-1,1Z"/><path d="m28.12,25.78c-.19.19-.28.46-.23.72l.38,2.34c.06.38-.1.76-.41.98-.17.12-.38.18-.58.18-.16,0-.33-.04-.48-.12l-1.89-1.05c-.25-.14-.57-.14-.82,0l-1.89,1.05c-.33.18-.74.16-1.06-.06-.31-.22-.47-.6-.41-.98l.38-2.34c.05-.26-.04-.53-.23-.72l-1.6-1.64c-.26-.27-.35-.66-.23-1.02s.43-.61.8-.67l2.14-.33c.27-.04.51-.22.63-.47l.97-2.07c.17-.36.52-.58.91-.58s.74.22.91.58l.97,2.07c.12.25.36.43.63.47l2.14.33c.37.06.68.31.8.67s.03.75-.23,1.02l-1.6,1.64Z"/><path d="m11.12,8.78c-.19.19-.28.46-.23.72l.38,2.34c.06.38-.1.76-.41.98-.17.12-.38.18-.58.18-.16,0-.33-.04-.48-.12l-1.89-1.05c-.25-.14-.57-.14-.82,0l-1.89,1.05c-.33.18-.74.16-1.06-.06-.31-.22-.47-.6-.41-.98l.38-2.34c.05-.26-.04-.53-.23-.72l-1.6-1.64c-.26-.27-.35-.66-.23-1.02s.43-.61.8-.67l2.14-.33c.27-.04.51-.22.63-.47l.97-2.07c.17-.36.52-.58.91-.58s.74.22.91.58l.97,2.07c.12.25.36.43.63.47l2.14.33c.37.06.68.31.8.67s.03.75-.23,1.02l-1.6,1.64Z"/><text x="0" y="47" fill="#000000" font-size="5px" font-weight="bold" font-family="'Helvetica Neue', Helvetica, Arial-Unicode, Arial, Sans-serif">Created by Adriansyah</text><text x="0" y="52" fill="#000000" font-size="5px" font-weight="bold" font-family="'Helvetica Neue', Helvetica, Arial-Unicode, Arial, Sans-serif">from the Noun Project</text></svg>