<svg xmlns="http://www.w3.org/2000/svg" version="1.1" viewBox="-5.0 -10.0 110.0 135.0">
 <path d="m38.16 13.793c-0.28125-1.0312 0.32812-2.0938 1.3594-2.375 8.4727-2.3086 17.258-1.7891 25.406 1.4922 6.5195 2.6289 12.281 6.9844 16.59 12.48l0.19141-0.98828c0.20312-1.0508 1.2188-1.7344 2.2695-1.5312 1.0508 0.20312 1.7344 1.2188 1.5312 2.2695l-1.0664 5.5c-0.097656 0.50391-0.39062 0.94922-0.81641 1.2344-0.32031 0.21875-0.69922 0.33203-1.082 0.33203-0.12109 0-0.24609-0.011719-0.37109-0.035156l-5.5-1.0703c-1.0508-0.20312-1.7344-1.2188-1.5312-2.2695s1.2227-1.7344 2.2695-1.5312l0.8125 0.15625c-8.8672-11.074-23.758-16.102-37.688-12.309-1.0312 0.28125-2.0938-0.32813-2.375-1.3594zm21.305 71.055c-13.93 3.793-28.82-1.2344-37.688-12.309l0.8125 0.15625c1.0508 0.20313 2.0664-0.48047 2.2695-1.5312 0.20312-1.0508-0.48047-2.0664-1.5312-2.2695l-5.5-1.0703c-0.50391-0.097657-1.0273 0.007812-1.4531 0.29688-0.42578 0.28516-0.71875 0.73047-0.81641 1.2344l-1.0664 5.5c-0.20313 1.0508 0.48437 2.0625 1.5312 2.2695 0.125 0.023438 0.24609 0.035156 0.37109 0.035156 0.91016 0 1.7188-0.64453 1.8984-1.5664l0.19141-0.98828c4.3086 5.4961 10.07 9.8555 16.59 12.48 4.8672 1.9609 9.9609 2.9336 15.078 2.9102 3.4531-0.015625 6.9141-0.48828 10.328-1.418 1.0312-0.28125 1.6406-1.3438 1.3594-2.375s-1.3477-1.6406-2.375-1.3594zm-44.133-26.121c-2.9297 0-5.332-2.4023-5.332-5.332v-27.363c0-2.9336 2.4023-5.3359 5.332-5.3359h5.6484v-9.0156l11.223 9.0156h17.48c2.9375 0 5.332 2.4023 5.332 5.3359v27.363c0 2.9297-2.3984 5.332-5.332 5.332zm19.215-9.3359c0-1.1172-0.91797-2.0352-2.0352-2.0352-1.1172 0-2.0312 0.91797-2.0312 2.0352 0 1.1211 0.91406 2.0312 2.0312 2.0312 1.1172 0 2.0352-0.91406 2.0352-2.0312zm-9.3828-13.949c0 1.0703 0.86719 1.9336 1.9336 1.9336s1.9336-0.86719 1.9336-1.9336c0-1.9141 1.5586-3.4727 3.4727-3.4727 1.9141 0 3.4727 1.5586 3.4727 3.4727 0 1.4375-0.89844 2.7422-2.2461 3.25-1.9219 0.73828-3.1641 2.543-3.1641 4.5977v0.64063c0 1.0703 0.86719 1.9336 1.9336 1.9336s1.9336-0.86719 1.9336-1.9336v-0.64063c0-0.46094 0.24609-0.81641 0.67188-0.98047 2.8359-1.0742 4.7383-3.832 4.7383-6.8672 0-4.0508-3.2969-7.3438-7.3438-7.3438-4.0508 0-7.3438 3.293-7.3438 7.3438zm64.836 11.164v27.363c0 2.9336-2.3984 5.3359-5.332 5.3359h-5.6445v9.0156l-11.227-9.0156h-17.48c-2.9297 0-5.332-2.4023-5.332-5.3359v-11.371h4.7031c5.0742 0 9.2031-4.1289 9.2031-9.2031v-12.121h25.777c2.9375 0 5.332 2.4023 5.332 5.332zm-20.184 10.004c0-1.0703-0.86719-1.9336-1.9336-1.9336-1.0664 0-1.9336 0.86719-1.9336 1.9336v13.359c0 1.0703 0.86719 1.9336 1.9336 1.9336 1.0664 0 1.9336-0.86719 1.9336-1.9336zm0.09375-6c0-1.0664-0.91406-1.9336-2.0312-1.9336-1.1172 0-2.0352 0.86719-2.0352 1.9336s0.91406 1.9375 2.0352 1.9375c1.125 0 2.0312-0.87109 2.0312-1.9375z"/>
<text x="0.0" y="117.5" font-size="5.0" font-weight="bold" font-family="Arbeit Regular, Helvetica, Arial-Unicode, Arial, Sans-serif" fill="#000000">Created by Putri Amaliya</text><text x="0.0" y="122.5" font-size="5.0" font-weight="bold" font-family="Arbeit Regular, Helvetica, Arial-Unicode, Arial, Sans-serif" fill="#000000">from Noun Project</text></svg>