<svg xmlns="http://www.w3.org/2000/svg" xmlns:xlink="http://www.w3.org/1999/xlink" version="1.1" x="0px" y="0px" viewBox="0 0 60 75" enable-background="new 0 0 60 60" xml:space="preserve"><g><path d="M30.6445313,22.2666016c-1.7993164,0-3.5400391,0.4257813-5.2207031,1.2744141   c-1.6806641,0.8476563-3.0478516,1.9941406-4.1000977,3.4384766c-1.4262695,1.9521484-2.1396484,4.4726563-2.1396484,7.5625   h8.7866211c0-2.3076172,0.831543-3.4619141,2.4960938-3.4619141c0.6108398,0,1.1289063,0.2128906,1.5527344,0.6357422   c0.4238281,0.4257813,0.637207,0.9443359,0.637207,1.5527344c0,1.0527344-0.6538086,1.8701172-1.9614258,2.4472656   l-1.7314453,0.7626953c-1.2563477,0.5615234-2.1230469,1.3476563-2.5981445,2.3544922   c-0.4755859,1.0107422-0.7124023,2.5791016-0.7124023,4.7011719v1.6035156h9.4477539   c0-1.2236328,0.1103516-2.0214844,0.3310547-2.3935547c0.2207031-0.375,0.840332-0.8164063,1.8598633-1.3242188   c3.1230469-1.5605469,4.6855469-4.2714844,4.6855469-8.1240234c0-3.1259766-1.0908203-5.7431641-3.2719727-7.8574219   C36.5234375,23.3242188,33.8369141,22.2666016,30.6445313,22.2666016z"/><path d="M30.5429688,46.4892578c-1.6640625,0-3.081543,0.5888672-4.2529297,1.7695313   c-1.1713867,1.1777344-1.7578125,2.6181641-1.7578125,4.3144531c0,1.75,0.5639648,3.1865234,1.6938477,4.3173828   c1.1289063,1.1308594,2.5678711,1.6923828,4.3168945,1.6923828c1.6806641,0,3.1157227-0.5810547,4.3037109-1.7421875   c1.1884766-1.1621094,1.7832031-2.5751953,1.7832031-4.2412109c0-1.6650391-0.5996094-3.0976563-1.7958984-4.3056641   C33.637207,47.0898438,32.206543,46.4892578,30.5429688,46.4892578z"/><path d="M30.5810547,19.5097656c1.0947266,0,1.9824219-0.8867188,1.9824219-1.9833984V3.3994141   c0-1.0957031-0.8876953-1.9824219-1.9824219-1.9824219c-1.0952148,0-1.9829102,0.8867188-1.9829102,1.9824219v14.1269531   C28.5981445,18.6230469,29.4858398,19.5097656,30.5810547,19.5097656z"/><path d="M57.3979492,16.3222656c-0.6650391-0.8710938-1.9082031-1.0380859-2.7792969-0.3720703L43.394043,24.5322266   c-0.8691406,0.6660156-1.0361328,1.9091797-0.3706055,2.7802734c0.3901367,0.5107422,0.9794922,0.7783203,1.5766602,0.7783203   c0.4194336,0,0.8432617-0.1357422,1.2026367-0.4101563l11.2246094-8.5820313   C57.8964844,18.4365234,58.0629883,17.1894531,57.3979492,16.3222656z"/><path d="M37.6376953,21.7519531c0.3320313,0.2167969,0.7045898,0.3173828,1.0727539,0.3173828   c0.6513672,0,1.2885742-0.3173828,1.6679688-0.90625l4.5957031-7.1259766   c0.5932617-0.9169922,0.3291016-2.1445313-0.5917969-2.7373047c-0.918457-0.5966797-2.1469727-0.3291016-2.7407227,0.5888672   l-4.5957031,7.125C36.4526367,19.9316406,36.7167969,21.1591797,37.6376953,21.7519531z"/><path d="M5.3813477,16.5039063c-0.8710938-0.6699219-2.1162109-0.4990234-2.7792969,0.3681641   c-0.6650391,0.8710938-0.4985352,2.1142578,0.3706055,2.7802734l11.2246094,8.5820313   c0.359375,0.2744141,0.7832031,0.40625,1.2026367,0.40625c0.597168,0,1.1865234-0.2666016,1.5766602-0.7783203   c0.6650391-0.8671875,0.4985352-2.1142578-0.3706055-2.7763672L5.3813477,16.5039063z"/><path d="M19.621582,21.7128906c0.3793945,0.5888672,1.0166016,0.9101563,1.6679688,0.9101563   c0.3681641,0,0.7407227-0.1044922,1.0727539-0.3173828c0.9208984-0.5927734,1.1850586-1.8203125,0.5917969-2.7421875   l-4.5957031-7.1210938c-0.59375-0.921875-1.8203125-1.1855469-2.7407227-0.5927734   c-0.9208984,0.5927734-1.1850586,1.8203125-0.5917969,2.7412109L19.621582,21.7128906z"/></g><text x="0" y="75" fill="#000000" font-size="5px" font-weight="bold" font-family="'Helvetica Neue', Helvetica, Arial-Unicode, Arial, Sans-serif">Created by arista septiana dewi</text><text x="0" y="80" fill="#000000" font-size="5px" font-weight="bold" font-family="'Helvetica Neue', Helvetica, Arial-Unicode, Arial, Sans-serif">from the Noun Project</text></svg>