<svg width="256" height="256" viewBox="0 0 256 256" fill="none" xmlns="http://www.w3.org/2000/svg">
<path d="M160.843 17.3814C194.105 2.48002 228.072 -3.92398 249.111 6.60229C259.634 27.6408 253.233 61.608 238.332 94.87L160.843 17.3814Z" fill="#EB50B8"/>
<path d="M206.896 147.535L206.017 183.573C205.93 187.114 204.912 190.567 203.066 193.588L172.954 242.839C168.669 249.847 158.57 250.066 153.984 243.252L128.157 204.879" fill="#EB50B8"/>
<path d="M50.8345 127.548L44.2029 159.441L70.2516 185.462L96.2722 211.51L128.166 204.879L50.8345 127.548Z" fill="#EB50B8"/>
<path d="M108.094 48.7354L72.0554 49.615C68.5148 49.7021 65.0614 50.7193 62.0406 52.5655L12.7925 82.6774C5.7844 86.9627 5.56522 97.0618 12.3795 101.648L50.7528 127.474" fill="#EB50B8"/>
<path d="M128.157 204.879L50.8345 127.556C51.4836 124.872 52.2704 122.178 53.2932 119.477C60.3435 100.855 72.2298 82.2643 88.5812 65.9158C107.352 47.1422 133.873 29.4813 160.854 17.3955L238.318 94.8588C226.232 121.843 208.568 148.361 189.797 167.135C173.449 183.483 154.855 195.372 136.236 202.423C133.536 203.443 130.841 204.23 128.157 204.879Z" fill="#F9F9F9"/>
<path d="M152.933 134.258C170.321 134.258 184.416 120.162 184.416 102.775C184.416 85.3868 170.321 71.2913 152.933 71.2913C135.545 71.2913 121.45 85.3868 121.45 102.775C121.45 120.162 135.545 134.258 152.933 134.258Z" fill="#141531"/>
<path d="M7.02652 254.307C5.5878 254.307 4.14908 253.759 3.05318 252.66C0.858574 250.465 0.858574 246.908 3.05318 244.713L52.8155 194.951C55.0073 192.756 58.5704 192.756 60.7622 194.951C62.9568 197.146 62.9568 200.703 60.7622 202.898L10.9999 252.66C9.90396 253.759 8.46524 254.307 7.02652 254.307Z" fill="#FF860C"/>
<path d="M9.38688 219.125C7.94816 219.125 6.51225 218.577 5.41354 217.479C3.21893 215.284 3.21893 211.727 5.41354 209.532L36.4078 178.541C38.5996 176.346 42.1599 176.346 44.3545 178.541C46.5491 180.735 46.5491 184.293 44.3545 186.487L13.3602 217.482C12.2643 218.577 10.8256 219.125 9.38688 219.125Z" fill="#FF860C"/>
<path d="M42.2077 251.946C40.769 251.946 39.3302 251.398 38.2343 250.3C36.0397 248.105 36.0397 244.547 38.2343 242.353L69.2258 211.361C71.4176 209.167 74.9807 209.167 77.1725 211.361C79.3671 213.556 79.3671 217.113 77.1725 219.308L46.181 250.3C45.0823 251.398 43.6436 251.946 42.2077 251.946Z" fill="#FF860C"/>
</svg>
