<svg xmlns="http://www.w3.org/2000/svg" xmlns:xlink="http://www.w3.org/1999/xlink" version="1.1" x="0px" y="0px" viewBox="0 0 48 60" enable-background="new 0 0 48 48" xml:space="preserve"><g><path d="M43.546,18.28c0.026-0.067,0.068-0.13,0.079-0.203c0.104-0.672,0.155-1.339,0.155-1.981c0-0.42-0.04-0.831-0.078-1.243   c0.644-0.158,1.077-0.671,0.996-1.233c-0.084-0.583-0.693-1.011-1.399-1.013C41.332,5.405,33.426,0,23.987,0   C14.543,0,6.634,5.41,4.672,12.617c-0.747-0.038-1.409,0.399-1.498,1.011c-0.084,0.59,0.399,1.123,1.095,1.252   c-0.036,0.402-0.075,0.805-0.075,1.216c0,0.643,0.049,1.29,0.153,1.979c0.012,0.08,0.035,0.158,0.065,0.232   c-0.759,0.763-1.216,1.733-1.216,2.789c0,2.45,2.45,4.442,5.462,4.442c0.013,0,0.1-0.003,0.11-0.003   c0.509-0.015,0.911-0.354,0.911-0.768v-7.344c0-0.401-0.413-0.737-0.906-0.767c-0.021-0.002-0.09-0.005-0.115-0.005   c-0.557,0-1.096,0.069-1.603,0.196c-0.017-0.254-0.03-0.505-0.03-0.753c0-0.337,0.035-0.667,0.062-0.998   c0.607-0.082,1.107-0.462,1.184-0.983c0.069-0.497-0.261-0.953-0.782-1.163C9.245,6.858,15.966,2.304,23.987,2.304   c8.001,0,14.709,4.534,16.485,10.606c-0.571,0.191-0.941,0.669-0.868,1.193c0.08,0.55,0.628,0.95,1.281,0.999   c0.029,0.329,0.062,0.657,0.062,0.993c0,0.246-0.011,0.497-0.03,0.751c-0.504-0.125-1.04-0.194-1.595-0.194   c-0.01,0-0.098,0.004-0.109,0.004c-0.508,0.016-0.91,0.354-0.91,0.768v7.344c0,0.401,0.412,0.737,0.905,0.767   c0.023,0.002,0.091,0.004,0.114,0.004c3.014,0,5.465-1.992,5.465-4.442C44.786,20.028,44.318,19.047,43.546,18.28z"/><path d="M34.021,18.178c0-5.844-4.494-10.597-10.02-10.597c-5.527,0-10.021,4.753-10.021,10.597   c0,5.843,4.494,10.598,10.021,10.598C29.526,28.775,34.021,24.021,34.021,18.178z"/><path d="M24,30.837c-10.969,0-20.586,6.216-23.93,15.466c-0.144,0.396-0.065,0.828,0.211,1.164C0.56,47.803,1,48,1.469,48H46.53   c0.469,0,0.91-0.197,1.188-0.533c0.276-0.336,0.354-0.768,0.211-1.164C44.585,37.053,34.968,30.837,24,30.837z"/></g><text x="0" y="63" fill="#000000" font-size="5px" font-weight="bold" font-family="'Helvetica Neue', Helvetica, Arial-Unicode, Arial, Sans-serif">Created by Creative Stall</text><text x="0" y="68" fill="#000000" font-size="5px" font-weight="bold" font-family="'Helvetica Neue', Helvetica, Arial-Unicode, Arial, Sans-serif">from the Noun Project</text></svg>